<svg width="26" height="27" viewBox="0 0 26 27" xmlns="http://www.w3.org/2000/svg">
    <defs>
        <linearGradient x1="50%" y1="0%" x2="50%" y2="100%" id="rmesxz165a">
            <stop stop-color="#C89659" offset="0%"/>
            <stop stop-color="#A97448" offset="100%"/>
        </linearGradient>
    </defs>
    <path d="M316 119.854c-7.179 0-13 5.662-13 12.646 0 6.984 5.821 12.646 13 12.646s13-5.662 13-12.646c0-6.984-5.821-12.646-13-12.646zm6.285 16.909a.438.438 0 0 1 .134.316.429.429 0 0 1-.134.316l-1.253 1.225a.473.473 0 0 1-.65 0L316 134.352l-4.376 4.274a.473.473 0 0 1-.65 0l-1.253-1.226a.438.438 0 0 1-.134-.316c0-.118.046-.237.134-.316l4.393-4.29-4.405-4.235a.445.445 0 0 1 0-.638l1.253-1.225a.463.463 0 0 1 .326-.13c.121 0 .237.045.325.13l4.393 4.217 4.393-4.217a.463.463 0 0 1 .325-.13c.122 0 .238.045.325.13l1.254 1.225c.18.175.18.463 0 .638l-4.405 4.234 4.387 4.286z" transform="rotate(45 308.146 -292.753)" fill="url(#rmesxz165a)" fill-rule="evenodd"/>
</svg>
