<svg width="22" height="22" viewBox="0 0 22 22" xmlns="http://www.w3.org/2000/svg">
    <defs>
        <filter id="37n3ru4e6a">
            <feColorMatrix in="SourceGraphic" values="0 0 0 0 0.780392 0 0 0 0 0.600000 0 0 0 0 0.427451 0 0 0 1.000000 0"/>
        </filter>
    </defs>
    <g transform="translate(-142 -799)" filter="url(#37n3ru4e6a)" fill="none" fill-rule="evenodd">
        <path d="M156.422 819.179c-2.739 0-5.96-1.454-8.667-4.158-4.317-4.318-5.444-9.954-2.566-12.833a5.344 5.344 0 0 1 3.078-1.538l.69-.1 2.538 5.918-2.538 1.268c.588 1.114 1.479 2.266 2.648 3.435 1.116 1.116 2.266 2 3.421 2.628l1.192-2.335 5.883.84.034.751c.087 1.868-.449 3.435-1.548 4.533-1.074 1.075-2.534 1.59-4.165 1.59zm-8.56-16.575a3.54 3.54 0 0 0-1.39.87c-2.087 2.085-.91 6.786 2.566 10.264 3.48 3.478 8.18 4.652 10.266 2.566.695-.695.946-1.611 1.008-2.422l-3.056-.437-.586 1.174a1.791 1.791 0 0 1-1.076.917c-.473.15-.997.096-1.436-.143-1.307-.71-2.598-1.7-3.837-2.938-1.297-1.297-2.294-2.594-2.965-3.854a1.822 1.822 0 0 1 .791-2.49l1.004-.5-1.289-3.007z" fill="#FFF"/>
    </g>
</svg>
