<svg xmlns="http://www.w3.org/2000/svg" width="25" height="22" viewBox="0 0 25 22">
    <g data-name="Group 127">
        <path d="M.833 0A.829.829 0 0 0 0 .825a.829.829 0 0 0 .833.825H3.6c1.382 3.382 2.74 6.77 4.108 10.158l-1.259 3a.833.833 0 0 0 .076.777.851.851 0 0 0 .7.366h13.886a.825.825 0 1 0 0-1.65H8.472l.721-1.7 13.377-1.06a.854.854 0 0 0 .747-.636l1.667-7.15a.866.866 0 0 0-.816-1.005H5.842L4.939.516A.855.855 0 0 0 4.167 0z" style="fill:#333"/>
        <path data-name="Path" d="M0 0h16.606l-1.293 5.552-12.665 1z" transform="translate(6.51 4.4)" style="fill:#fff"/>
        <path data-name="Path" d="M2.778 0A2.777 2.777 0 0 0 0 2.75a2.778 2.778 0 0 0 5.556 0A2.777 2.777 0 0 0 2.778 0z" transform="translate(7.222 16.5)" style="fill:#333"/>
        <path data-name="Path" d="M2.778 0A2.777 2.777 0 0 0 0 2.75a2.778 2.778 0 0 0 5.556 0A2.777 2.777 0 0 0 2.778 0z" transform="translate(15.556 16.5)" style="fill:#333"/>
        <path data-name="Path" d="M1.111 0a1.093 1.093 0 0 1 1.111 1.1 1.093 1.093 0 0 1-1.111 1.1A1.093 1.093 0 0 1 0 1.1 1.093 1.093 0 0 1 1.111 0z" transform="translate(8.889 18.15)" style="fill:#fff"/>
        <path data-name="Path" d="M1.111 0a1.093 1.093 0 0 1 1.111 1.1 1.093 1.093 0 0 1-1.111 1.1A1.093 1.093 0 0 1 0 1.1 1.093 1.093 0 0 1 1.111 0z" transform="translate(17.222 18.15)" style="fill:#fff"/>
    </g>
</svg>
