<svg data-name="Group 10" xmlns="http://www.w3.org/2000/svg" width="27" height="20" viewBox="0 0 27 20">
    <path d="M26.644 16.96 15.111.8A2.01 2.01 0 0 0 11.9.8L.365 16.96A1.921 1.921 0 0 0 1.971 20h23.067a1.954 1.954 0 0 0 1.606-3.04z" style="fill:#da3f3f"/>
    <path data-name="Path" d="M1.446 2.857A1.45 1.45 0 0 1 0 1.429a1.447 1.447 0 0 1 2.893 0 1.45 1.45 0 0 1-1.447 1.428z" transform="translate(12.536 14.286)" style="fill:#fffcf6"/>
    <path data-name="Path" d="M2.394 8.3a.247.247 0 0 1-.249.271H.7A.247.247 0 0 1 .449 8.3L0 .325C0 .163.1 0 .249 0h2.394c.15 0 .249.163.249.325z" transform="translate(12.536 4.762)" style="fill:#fffcf6"/>
</svg>
