<svg xmlns="http://www.w3.org/2000/svg" width="300.977" height="568" viewBox="0 0 300.977 568">
    <g data-name="Group 20" transform="translate(-25 -437.707)">
        <path data-name="Path 2" d="M0 45.694 117.926 0l7.127 123.687-51.788-5.747L23.09 81.043z" transform="translate(70.918 586.178)" style="opacity:.096;fill:#e8f9fb"/>
        <path data-name="Path 3" d="m9.76 0 116.61 56.618L4.407 84.127 0 42.668z" transform="translate(62.474 529.56)" style="fill:#fae2ff;opacity:.096"/>
        <path data-name="Path 4" d="m123.075 0-16.194 131.038L0 57.535l50.149-46.3z" transform="translate(81.963 455.141)" style="fill:#ebf6fe;opacity:.096"/>
        <path data-name="Path 5" d="M36.706 0 0 127.6l91.936-94.875z" transform="translate(188.844 456.859)" style="fill:#fff5d7;opacity:.096"/>
        <path data-name="Path 6" d="M108.543 149.2 0 80.233 103.808 0l16.607 38.337 9.863 49.6z" transform="translate(188.844 505.946)" style="fill:#e8f7eb;opacity:.096"/>
        <path data-name="Path 7" d="M26.5 123.687 0 0l96.394 82.647-29.685 25.123z" transform="translate(188.844 586.178)" style="fill:#f1edeb;opacity:.096"/>
        <path d="M6.938 45.494a5.581 5.581 0 1 1-2.7-10.831 122.763 122.763 0 0 0 57.757-33 5.584 5.584 0 0 1 7.96 7.837A133.937 133.937 0 0 1 6.938 45.494z" transform="translate(215.345 667.221)" style="fill:#8d6e63"/>
        <path data-name="Oval Copy" d="M141.478 31.431A123.1 123.1 0 0 0 8.557 29.878a5.582 5.582 0 1 1-5.941-9.453 134.279 134.279 0 0 1 145.021 1.693 5.583 5.583 0 0 1-6.16 9.312z" transform="rotate(88 -100.673 418.266)" style="fill:#4ac367"/>
        <path data-name="Oval Copy 3" d="M9.463 53.653a5.583 5.583 0 1 1-7.754-8.036A122.98 122.98 0 0 0 30.3 3.478a5.585 5.585 0 0 1 10.346 4.208A134.141 134.141 0 0 1 9.463 53.653z" transform="scale(-1) rotate(85.99 152.408 -369.646)" style="fill:#ffc107"/>
        <path data-name="Oval Copy 4" d="M3.373 24.045A5.582 5.582 0 1 1 7.8 13.8a122.569 122.569 0 0 0 48.682 10 122.376 122.376 0 0 0 71.3-22.766 5.583 5.583 0 1 1 6.49 9.086 133.554 133.554 0 0 1-77.79 24.846A133.75 133.75 0 0 1 3.373 24.045z" transform="rotate(161 66.066 253.031)" style="fill:#2196f3"/>
        <path data-name="Oval Copy 5" d="M5.976 37.983A5.581 5.581 0 1 1 5.2 26.848 122.322 122.322 0 0 0 72.1 1.183a5.583 5.583 0 1 1 6.878 8.8 133.5 133.5 0 0 1-73.002 28z" transform="rotate(115.98 -119.143 303.743)" style="fill:#da5df5"/>
        <path data-name="Oval Copy 6" d="M8.792 139.174a5.583 5.583 0 1 1-6.411-9.141A122.572 122.572 0 0 0 54.842 29.407a123.368 123.368 0 0 0-2.113-22.8 5.586 5.586 0 0 1 10.98-2.055 134.519 134.519 0 0 1 2.3 24.855A133.728 133.728 0 0 1 8.792 139.174z" transform="scale(-1) rotate(-79.98 -493.601 -204.028)" style="fill:#00bcd4"/>
        <ellipse data-name="Oval" cx="73.493" cy="73.422" rx="73.493" ry="73.422" transform="translate(117.025 510.707)" style="fill:#342920"/>
        <text transform="translate(166.902 562.686)" style="font-size:32px;font-family:AvenirNext-DemiBold,Avenir Next;font-weight:300;fill:#fff"><tspan x="-19.52" y="32">11</tspan></text>
        <path d="M8 0c6.1 0 8 2.194 8 8s-1.9 8-8 8-8-2.194-8-8 1.9-8 8-8z" style="fill:#00bcd4" transform="translate(67 988.707)"/>
        <text data-name="Title Copy" transform="translate(49 1001.707)" style="font-family:SFProText-Regular,SF Pro Text;font-size:14px;fill:#fff"><tspan x="-15.347" y="0">01</tspan></text>
        <g data-name="primary">
            <path data-name="Rectangle" d="M8 0c6.1 0 8 2.194 8 8s-1.9 8-8 8-8-2.194-8-8 1.9-8 8-8z" style="fill:#8d6e63" transform="translate(67 940.707)"/>
        </g>
        <text data-name="Title Copy 3" transform="translate(49 953.707)" style="font-family:SFProText-Regular,SF Pro Text;font-size:14px;fill:#fff"><tspan x="-17.274" y="0">02</tspan></text>
        <g data-name="primary">
            <path data-name="Rectangle" d="M8 0c6.1 0 8 2.194 8 8s-1.9 8-8 8-8-2.194-8-8 1.9-8 8-8z" style="fill:#4ac367" transform="translate(67 895.707)"/>
        </g>
        <text data-name="Title Copy 5" transform="translate(28 895.707)" style="font-family:SFProText-Regular,SF Pro Text;font-size:14px;fill:#fff"><tspan x="-17.274" y="13">02</tspan></text>
        <g data-name="primary">
            <path data-name="Rectangle" d="M8 0c6.1 0 8 2.194 8 8s-1.9 8-8 8-8-2.194-8-8 1.9-8 8-8z" style="fill:#ffc107" transform="translate(67 853.707)"/>
        </g>
        <text data-name="Title Copy 6" transform="translate(27 853.707)" style="font-family:SFProText-Regular,SF Pro Text;font-size:14px;fill:#fff"><tspan x="-17.596" y="13">03</tspan></text>
        <g data-name="primary">
            <path data-name="Rectangle" d="M8 0c6.1 0 8 2.194 8 8s-1.9 8-8 8-8-2.194-8-8 1.9-8 8-8z" style="fill:#2196f3" transform="translate(67 807.707)"/>
        </g>
        <text data-name="Title Copy 2" transform="translate(49 820.707)" style="font-family:SFProText-Regular,SF Pro Text;font-size:14px;fill:#fff"><tspan x="-15.347" y="0">01</tspan></text>
        <g data-name="primary">
            <path data-name="Rectangle" d="M8 0c6.1 0 8 2.194 8 8s-1.9 8-8 8-8-2.194-8-8 1.9-8 8-8z" style="fill:#ff5998" transform="translate(67 762.707)"/>
        </g>
        <text data-name="Title Copy 4" transform="translate(25 762.707)" style="font-family:SFProText-Regular,SF Pro Text;font-size:14px;fill:#fff"><tspan x="-17.274" y="13">02</tspan></text>
        <text transform="translate(103 986.707)" style="font-size:16px;font-family:SFProText-Regular,SF Pro Text;fill:#fff"><tspan x="0" y="15">Others: 10%</tspan></text>
        <text data-name="Title" transform="translate(103 938.707)" style="font-size:16px;font-family:SFProText-Regular,SF Pro Text;fill:#fff"><tspan x="0" y="15">Rider Behaviour: 20%</tspan></text>
        <text data-name="Title" transform="translate(103 895.707)" style="font-size:16px;font-family:SFProText-Regular,SF Pro Text;fill:#fff"><tspan x="0" y="15">Wrong Product: 20%</tspan></text>
        <text data-name="Title" transform="translate(103 853.707)" style="font-size:16px;font-family:SFProText-Regular,SF Pro Text;fill:#fff"><tspan x="0" y="15">Expired Item: 10%</tspan></text>
        <text data-name="Title" transform="translate(103 805.707)" style="font-size:16px;font-family:SFProText-Regular,SF Pro Text;fill:#fff"><tspan x="0" y="15">Spilling: 20%</tspan></text>
        <text data-name="Title" transform="translate(103 762.707)" style="font-size:16px;font-family:SFProText-Regular,SF Pro Text;fill:#fff"><tspan x="0" y="15">Wear &amp; Tear: 20%</tspan></text>
    </g>
</svg>
