<svg data-name="Group 55" xmlns="http://www.w3.org/2000/svg" width="251" height="238" viewBox="0 0 251 238">
    <path data-name="Fill 3" d="M172.018 234.242S39.382 260.428 3.643 174.553c-3.074-7.389-18.2-71.171 48.227-122.309 16.148-12.432 26.364-35.993 66.492-47.823 12.88-3.8 31.176-6.146 49.006-2.853 20.041 3.7 30.4 20.8 35.41 55.662 6.1 42.456 23.366 37.9 34.173 51.678 26.2 33.4 11.341 75.952-8.693 96.018-11.321 11.341-27.4 23.185-56.239 29.316" style="fill:#fff7e4"/>
    <path data-name="Fill 4" d="M.511 8h18.725a.65.65 0 0 0 .627-.492c.2-.786.384-2.233-1.019-2.206-2.8.056-2.674.077-2.562-1.709.08-1.27-1.885-.38-2.3-1.443S12.815-.472 11.2.137 9.745 4.453 8.069 4.011c-1.583-.418-3.025-2.159-3.919-.418-1.094 2.127-1.545.229-3.015 1.027C.07 5.2-.024 6.717 0 7.507A.51.51 0 0 0 .511 8" transform="translate(171 77)" style="fill:#fff"/>
    <path data-name="Fill 5" d="M.637 10h23.409a.81.81 0 0 0 .782-.615c.251-.982.48-2.792-1.273-2.756-3.5.069-3.343.095-3.2-2.137.1-1.59-2.354-.475-2.873-1.805S16.02-.589 13.994.171s-1.813 5.4-3.909 4.843c-1.978-.522-3.78-2.7-4.9-.522-1.363 2.659-1.929.284-3.765 1.281C.086 6.5-.031 8.4.005 9.383A.636.636 0 0 0 .637 10" transform="translate(6 86)" style="fill:#ddd"/>
    <path data-name="Fill 6" d="m1.079 17 39.328-.165a1.363 1.363 0 0 0 1.313-1.044c.416-1.661.787-4.721-2.157-4.651-5.882.142-5.62.184-5.4-3.589.157-2.687-3.961-.786-4.84-3.029S26.85-1 23.454.294s-3.01 9.134-6.535 8.213c-3.328-.869-6.37-4.535-8.235-.848-2.276 4.5-3.242.5-6.322 2.193C.128 11.085-.057 14.3.011 15.964A1.071 1.071 0 0 0 1.079 17" transform="translate(144 16)" style="fill:#fff"/>
    <path data-name="Fill 7" d="M.6 9h25.507a.766.766 0 0 0 .693-.426 3.161 3.161 0 0 0-.309-2.818c-1.146-2.339-6.132.834-6.411-2.49-.229-2.718-3.435-4.68-5.725-1.966s-4 .7-6.334 1.962c-1.679.905-.152 2.49-2.9 3.019C2.6 6.768.461 5.981.011 8.3A.592.592 0 0 0 .6 9" transform="translate(192 49)" style="fill:#ddd"/>
    <path data-name="Fill 8" d="M30.434 191h32.132A30.41 30.41 0 0 0 93 160.614V30.387A30.411 30.411 0 0 0 62.566 0H30.434A30.41 30.41 0 0 0 0 30.387v130.227A30.41 30.41 0 0 0 30.434 191" transform="translate(37 30)" style="fill:#fff"/>
    <path data-name="Fill 9" d="M38.1 48.677C36.675 49.861 23.9 60.914 23.232 61c-.115.016-3.96-3.91-5.711-5.715C13.047 50.682.779 39.1 0 37.713c1.262-2.463 3.058-4.969 4.509-7.233 4.639-7.238 9.833-14.234 15.229-22.128C21.393 5.929 25.128-.05 25.461 0c.16.025.271.323.344.435 1.93 3.02 30.308 32.738 30.2 32.832-1.3 1.082-2.562 2.2-3.828 3.313C47.7 40.5 42.682 44.869 38.1 48.677" transform="translate(55 40)" style="fill:#ddd"/>
    <path data-name="Fill 10" d="M.161.153c-.022.04-.022-.04 0 0" transform="translate(54.847 77.847)" style="fill:#c6bcba"/>
    <path data-name="Fill 11" d="M40 2.312c-.169.3-5.73 8.535-7.368 11.068-3.46 5.345-7.182 10.526-10.694 15.838-1.259 1.905-6.693 10.242-7.058 10.772-.166.242-8.4-4.182-14.88-7.779V7.972A15.464 15.464 0 0 1 2.2 0c2.831.123 10.1.664 10.477.682 3.8.181 27.4 1.5 27.323 1.629" transform="translate(38 37)" style="fill:#eeeeef"/>
    <path data-name="Fill 12" d="M52.524 12.8c2.848 3.16 8.526 9.335 8.476 9.392-.55.64-6.284 6.467-8.374 8.935C45.852 39.123 24.869 61.04 24.839 61c-1.072-1.388-8.939-10.3-13.788-15.8C8.51 42.318.888 33.544 0 32.593c-.021-.019 13.563-11.341 18.327-15.036 2.943-2.284 12.249-9.969 14.042-11.426C33.485 5.224 39.95 0 40.058 0c.169-.005 10.695 10.83 12.467 12.8" transform="translate(38 104)" style="fill:#eeeeef"/>
    <path data-name="Fill 13" d="M15.706 44.218C14.9 43.194.279 27.866 0 27.068c-.152-.445 12.714-11.327 17.252-14.968 2-1.605 8.214-6.88 9.327-7.9.7-.642 4.787-4.222 4.94-4.195C32.488.173 49.084 17.924 49 18.019c-1.836 2.068-9.068 10.023-12.759 14.007C34.129 34.31 21.624 47.583 20.381 49c-.067.077-4.183-4.155-4.675-4.781" transform="translate(81 76)" style="fill:#eeeeef"/>
    <path data-name="Fill 14" d="M35.67 39.477c-.37.321-3.955 3.555-4.347 3.523-.528-.042-5.912-6.42-7.846-8.45C17.092 27.85.042 9.327 0 9.139c-.068-.3 2.249-3.532 2.512-3.952C3.606 3.436 4.753 1.718 5.9 0h14.8C29.6 9.8 47 29.814 47 29.814c-5.262 4.608-7.08 5.978-11.33 9.663" transform="translate(81 30)" style="fill:#ddd"/>
    <path data-name="Fill 15" d="M6.078 20.357C4.535 18.67-.041 14.042 0 13.742c.07-.509 9.093-8.071 10.265-9.112C10.963 4.009 14.8.646 15.616 0c.022-.018.157.087.384.295V31c-1.905-1.916-7.721-8.237-9.922-10.643" transform="translate(114 61)" style="fill:#eeeeef"/>
    <path data-name="Fill 16" d="M29.145 7.644C22.821 7.2 5.5 5.98 0 5.522A14.975 14.975 0 0 1 11.57 0H43c-2.388 3.624-5.188 7.741-5.3 7.925-.157.256-7.75-.225-8.553-.282" transform="translate(41 30)" style="fill:#eeeeef"/>
    <path data-name="Fill 17" d="M39 2.638c-.359.252-5.322 4.069-6.338 4.894C29.845 9.821 6.38 28.249 0 33V0c11.676.746 39.168 2.52 39 2.638" transform="translate(37 101)" style="fill:#eeeeef"/>
    <path data-name="Fill 18" d="M20.78 17.741c.629.645 4.305 4.149 4.219 4.248-.146.166-15.243-1.574-17.125-1.778-1.115-.12-7.187-.511-7.837-.659C-.414 19.446 3.459 0 3.459 0c0-.019 2.553 2.571 3.09 3.09C8.065 4.556 17.3 14.187 20.78 17.741" transform="translate(50 80)" style="fill:#eeeeef"/>
    <path data-name="Fill 19" d="M25.134 27.988c-.549-.618-7.878-8.785-10.57-11.629C9.584 11.1 4.873 5.738.2.228L0 0h10.645A15.211 15.211 0 0 1 26 15.063v12.515c-.5.311-.814.469-.866.41" transform="translate(105 30)" style="fill:#eeeeef"/>
    <path data-name="Fill 20" d="M11.028 16.188c-.3 1.3-1.857 10.3-2 10.806-.017.057-4.1-.267-9.027-.669V0a2857.594 2857.594 0 0 1 12.986 6.956c.174.168-1.455 7.07-1.959 9.231" transform="translate(38 72)" style="fill:#eeeeef"/>
    <path data-name="Fill 21" d="M0 30.391c1.836-2.031 13.12-13.432 15.7-16.158C19.592 10.113 26.509 2.617 29 0v45c-2.939 0-8.473-.2-10.221-.331C17.32 44.558-.223 30.641 0 30.391" transform="translate(102 97)" style="fill:#eeeeef"/>
    <path data-name="Fill 22" d="M0 38.69c-.256-.37 10.374-10.584 13.719-14.134C19.552 18.371 35.553.025 36.043 0 36.838-.042 47 8.164 47 8.164c-.4 1.9-5.294 26.442-6.648 34.239-.594 3.427-1.3 9.4-2.025 12.3-.124.493-21.08.235-25.028.237C13.254 54.934 1.817 41.326 0 38.69" transform="translate(64 129)" style="fill:#eeeeef"/>
    <path data-name="Fill 23" d="M.008 44.746C-.289 44.583 7.457.05 7.554 0c.286-.135 4.64 4.3 5.33 4.528.892.292 8.526.539 12.116.714V44.8c-6.222.238-24.324.317-24.992-.053" transform="translate(105 139)" style="fill:#eeeeef"/>
    <path data-name="Fill 24" d="M0 .074C.137.04 9.216 0 13.181 0 24.018-.006 44.619.073 51 .1v18.923A15.037 15.037 0 0 1 35.9 34H13.7c-.042-4.49-.279-16.228-.571-16.678C10.426 13.179-.019.078 0 .074" transform="translate(79 187)" style="fill:#eeeeef"/>
    <path data-name="Fill 25" d="M.19 18.021C.075 12.144-.086.21.055.08c.276-.25 20.01.146 20.657.382.462.169 3.527 4.2 3.9 4.7 2.287 3.107 9.3 11.862 10.271 13.077.153.194.106 12.39.117 16.759H.495C.4 31.236.266 21.933.19 18.021" transform="translate(55 186)" style="fill:#eeeeef"/>
    <path data-name="Fill 26" d="M7.792 0c.005 0 6.444 7.7 8.6 10.515.719.937 3.588 4.347 3.606 4.34 0 0-19.989.26-20 .085C-.044 14.3 7.617.019 7.792 0" transform="translate(56 169)" style="fill:#eeeeef"/>
    <path data-name="Fill 27" d="M14.981 43.763c-.1.341-9.655.232-14.981.169V0c6.036 6.854 23 27.857 23 27.857.1-.125-7.833 15.3-8.018 15.906" transform="translate(38 140)" style="fill:#ddd"/>
    <path data-name="Fill 28" d="M15.551.361c.027 2.5.12 7.207.156 10.032.07 5.523.288 19.907.293 24.607h-.329A15.5 15.5 0 0 1 0 19.666V0c.744.007 1.377.023 1.519.023 4.328 0 14.029.028 14.032.338" transform="translate(37 186)" style="fill:#ddd"/>
    <path data-name="Fill 29" d="M29.437 90a.432.432 0 0 0 .323-.142l19.127-20.877a.431.431 0 0 0-.009-.591L25.951 44.852l-.007-.007L1 20.348 14.243.673a.429.429 0 0 0-.121-.6.439.439 0 0 0-.6.119L.073 20.164a.431.431 0 0 0 .056.548l25.2 24.746L47.968 68.7 29.116 89.277a.433.433 0 0 0 .322.723" transform="translate(52 58)" style="fill:#9c4830"/>
    <path data-name="Fill 30" d="M2 1a1 1 0 1 1-1-1 1 1 0 0 1 1 1" transform="translate(66 57)" style="fill:#9c4830"/>
    <path data-name="Fill 31" d="M2 1a1 1 0 1 1-1-1 1 1 0 0 1 1 1" transform="translate(81 147)" style="fill:#9c4830"/>
    <path data-name="Fill 32" d="M.48 5.223A3.47 3.47 0 0 1 3.34 0h.318A3.47 3.47 0 0 1 6.52 5.223l-2.706 4.6a.367.367 0 0 1-.63 0l-2.7-4.6" transform="translate(59 48)" style="fill:#9c4830"/>
    <path data-name="Fill 33" d="M0 1.5A1.5 1.5 0 1 0 1.5 0 1.5 1.5 0 0 0 0 1.5" transform="translate(60 50)" style="fill:#fff"/>
    <path data-name="Fill 34" d="M83.277 196H15.723A15.73 15.73 0 0 1 0 180.264V15.736A15.73 15.73 0 0 1 15.723 0h67.554A15.73 15.73 0 0 1 99 15.736v164.528A15.73 15.73 0 0 1 83.277 196zM15.723 4.449A11.283 11.283 0 0 0 4.445 15.736v164.528a11.3 11.3 0 0 0 11.278 11.288h67.554a11.3 11.3 0 0 0 11.278-11.288V15.736A11.283 11.283 0 0 0 83.277 4.449H70.821A3.454 3.454 0 0 0 67.372 7.9v1.892a3.39 3.39 0 0 1-3.384 3.388H35.252a3.39 3.39 0 0 1-3.384-3.388V7.338a2.891 2.891 0 0 0-2.887-2.889z" transform="translate(34 28)" style="fill:#464646"/>
    <path data-name="Fill 35" d="M.48 5.223A3.469 3.469 0 0 1 3.342 0h.318a3.469 3.469 0 0 1 2.86 5.223l-1.082 1.84-1.624 2.759a.366.366 0 0 1-.628 0L1.562 7.063.48 5.223" transform="translate(74 139)" style="fill:#9c4830"/>
    <path data-name="Fill 36" d="M0 1.5A1.5 1.5 0 1 0 1.5 0 1.5 1.5 0 0 0 0 1.5" transform="translate(75 140)" style="fill:#fff"/>
    <path data-name="Fill 37" d="M21.5 46a20.15 20.15 0 0 1-8.366-1.809A21.43 21.43 0 0 1 6.3 39.26a23.093 23.093 0 0 1-4.61-7.311 24.528 24.528 0 0 1 0-17.9A23.094 23.094 0 0 1 6.3 6.74a21.429 21.429 0 0 1 6.835-4.931 20.25 20.25 0 0 1 16.731 0A21.429 21.429 0 0 1 36.7 6.74a23.1 23.1 0 0 1 4.609 7.311 24.528 24.528 0 0 1 0 17.9A23.094 23.094 0 0 1 36.7 39.26a21.429 21.429 0 0 1-6.834 4.931A20.146 20.146 0 0 1 21.5 46zm-.13-35.074A12.887 12.887 0 0 0 8.763 24.047a12.887 12.887 0 0 0 12.608 13.122A12.888 12.888 0 0 0 33.98 24.047a12.887 12.887 0 0 0-12.609-13.121z" transform="translate(82 185)" style="fill:#292718"/>
    <path data-name="Fill 38" d="M13.5 29C6.056 29 0 22.495 0 14.5S6.056 0 13.5 0 27 6.5 27 14.5 20.944 29 13.5 29zm-1.485-10.584c-.039.059-3.888 5.94-3.973 6.4a.116.116 0 0 0 .037.087 9.653 9.653 0 0 0 5.36 1.37 10.013 10.013 0 0 0 5.031-1.278s-.023-.037-.058-.1c-.755-1.291-2.616-4.491-3.58-6.3a1.756 1.756 0 0 1-.849.15 7.472 7.472 0 0 1-1.967-.327zm12.454-6.032c-.048.01-4.859 1.022-7.156 1.719a5.363 5.363 0 0 1-.785 3.094c.047.051 4.841 5.286 5.246 5.48a.054.054 0 0 0 .023 0c.11 0 .37-.244.662-.621a11.847 11.847 0 0 0 2.009-9.677zm-21.725.039h-.013c-.039 0-.081.056-.122.154-.384.924-.683 5.906 2.725 9.778.025-.023 3.558-3.208 5.289-4.955a4.187 4.187 0 0 1-1.09-3.4c-.059-.02-6.247-1.577-6.789-1.577zm13.1-9.835c-.009.051-.864 5.153-1.156 7.641a4.681 4.681 0 0 1 2.425 1.993c.064-.026 6.711-2.665 7.034-2.979.033-.032.026-.123-.02-.264-.372-1.152-3.39-5.677-8.284-6.391zM3.588 9.45l.062.021c1.265.449 4.407 1.582 6.264 2.392A6.375 6.375 0 0 1 12.851 10c-.008-.066-.884-6.954-1.087-7.372-.016-.032-.071-.049-.161-.049a8.865 8.865 0 0 0-3.624 1.6A11.923 11.923 0 0 0 3.587 9.45z" transform="translate(90 194)" style="fill:#464646"/>
    <path data-name="Fill 39" d="M1.5 0C2.328 0 3 .9 3 2s-.672 2-1.5 2S0 3.1 0 2s.673-2 1.5-2" transform="translate(102 206)" style="fill:#292718"/>
    <path data-name="Fill 40" d="M2.662 12.744S-.563 10.151.087 6.343C.716 2.648 3.872.128 6.581.01c2.409-.1 35 .534 39.593 3 5.741 3.08 7.408 7.562 6.657 14.948-.224 2.19-13.483.324-15.7-.074-8.9-1.594-31.344-4.506-34.467-5.136" transform="translate(99 147)" style="fill:#292718"/>
    <path data-name="Fill 41" d="M21.5 46a20.148 20.148 0 0 1-8.365-1.809A21.427 21.427 0 0 1 6.3 39.26a23.092 23.092 0 0 1-4.609-7.311 24.532 24.532 0 0 1 0-17.9A23.092 23.092 0 0 1 6.3 6.739a21.428 21.428 0 0 1 6.834-4.931 20.252 20.252 0 0 1 16.731 0A21.428 21.428 0 0 1 36.7 6.739a23.091 23.091 0 0 1 4.61 7.311 24.532 24.532 0 0 1 0 17.9 23.091 23.091 0 0 1-4.61 7.31 21.428 21.428 0 0 1-6.835 4.931A20.152 20.152 0 0 1 21.5 46zm-.128-35.075a12.889 12.889 0 0 0-12.61 13.123 12.888 12.888 0 0 0 12.61 13.121 12.886 12.886 0 0 0 12.607-13.121 12.887 12.887 0 0 0-12.608-13.123z" transform="translate(197 185)" style="fill:#292718"/>
    <path data-name="Fill 42" d="M13.5 29C6.056 29 0 22.5 0 14.5S6.056 0 13.5 0 27 6.5 27 14.5 20.944 29 13.5 29zm-1.485-10.585c-.039.059-3.888 5.94-3.973 6.4a.117.117 0 0 0 .038.088 9.666 9.666 0 0 0 5.359 1.369 10.019 10.019 0 0 0 5.034-1.279s-.023-.037-.059-.1c-.755-1.291-2.616-4.49-3.58-6.3a1.762 1.762 0 0 1-.85.15 7.473 7.473 0 0 1-1.968-.327zm12.456-6.032c-.048.01-4.862 1.023-7.158 1.719a5.353 5.353 0 0 1-.783 3.098c.047.051 4.842 5.288 5.244 5.479a.055.055 0 0 0 .024 0c.11 0 .371-.244.664-.622a11.847 11.847 0 0 0 2.009-9.674zm-21.725.039h-.013c-.04 0-.082.057-.124.157-.382.925-.677 5.91 2.725 9.775.025-.023 3.556-3.2 5.291-4.954a4.2 4.2 0 0 1-1.093-3.407c-.058-.014-6.248-1.57-6.786-1.571zm13.1-9.832c-.009.051-.864 5.151-1.154 7.64a4.672 4.672 0 0 1 2.425 1.992c.064-.026 6.711-2.665 7.034-2.979.032-.032.025-.123-.02-.263-.379-1.152-3.4-5.68-8.29-6.39zM3.588 9.449l.063.021c1.265.45 4.407 1.583 6.263 2.392A6.374 6.374 0 0 1 12.853 10c-.008-.066-.885-6.951-1.089-7.372-.016-.032-.071-.049-.16-.049a8.865 8.865 0 0 0-3.624 1.6 11.922 11.922 0 0 0-4.393 5.27z" transform="translate(205 194)" style="fill:#464646"/>
    <path data-name="Fill 43" d="M1.5 0C2.327 0 3 .9 3 2s-.673 2-1.5 2S0 3.1 0 2s.671-2 1.5-2" transform="translate(217 206)" style="fill:#292718"/>
    <path data-name="Fill 44" d="M6.82 7.169A73.7 73.7 0 0 1 14 1 14.934 14.934 0 0 0 7.084.136C3.993.676 1.553 4.415.425 7.175-.536 9.527.291 13.3 1.335 14c.182.119 2.84-4.054 5.485-6.828" transform="translate(82 167)" style="fill:#f6ca9f"/>
    <path data-name="Fill 45" d="M15.551 2.29A27.435 27.435 0 0 1 17.9.136a28.812 28.812 0 0 1 8.464.437A28.567 28.567 0 0 1 44.327 12.81c2.175 3.139 5.112 10.782 4.618 15.153C48.78 29.407.359 29 0 28.737a118.46 118.46 0 0 0 7.252-11.144c2.888-5.062 8.3-15.3 8.3-15.3" transform="translate(193 175)" style="fill:#413123"/>
    <path data-name="Fill 46" d="M133.311 27.731c-4.162-6.211-6.763-10.372-12.365-17.85C119.1 7.42 113.1 0 113.1 0s-9.744 5-9.641 7.172c.084 1.759 1.19 4.191 1.956 6.15 1.344 3.436 5.822 12.769 7.152 20.631.894 5.276-.445 11.13-1.956 16.151-.857 2.848-2.433 6.52-4.475 8.7-2.707 2.888-6.367 3.92-10.639 4.034-7.107.187-16.728-1.153-20.685-5.746-7.9-9.17.935-25.4.935-25.4-.01.07-50.037-5.727-50.444-5.536-1.688.79-6.616 8.393-10.28 11.576C9.372 42.637 3.589 47.436.754 58.853c-1.8 7.25-.1 12.369 2.234 12.36 31.954-.117 48.557.5 48.557.5-.4.386 1.747 7.355 1.946 7.732 1.41 2.7 50.482 1.244 53.381.444 3.546-.978 9.116-6.9 12.009-11.068 4.731-6.812 8.576-14.27 12.285-21.565 1.129-2.22 1.915-4.182 3.836-5.729 1-.805 3.356-1.929 2.951-4.268-.366-2.123-3.058-7.161-4.642-9.525" transform="translate(76 134)" style="fill:#413123"/>
    <path data-name="Fill 47" d="M6.6 19C5.015 16.125-.129 8.27 0 5.739.112 3.6 6.119-.033 7.117 0 8.575.048 14.337 8.948 16 12.157c.01.019-2.569 1.381-4.992 2.926A32.037 32.037 0 0 0 6.6 19" transform="translate(173 122)" style="fill:#9c4830"/>
    <path data-name="Fill 48" d="M.688 6.335C.271 4.8-.443 2.945.376 1.686 1.035.674 4.249.336 5.316.2c1.715-.224 5.828-.563 7.129.954a8.863 8.863 0 0 1 1.767 3.933A36.573 36.573 0 0 1 15 12.068c0 .954-.093 3.244-1.056 3.846-.726.454-6.281-1.036-6.666-1.3-.249-.171-1.439-2.1-2.773-4.007A17.126 17.126 0 0 0 .688 6.335" transform="translate(180 116)" style="fill:#9c4830"/>
    <path data-name="Fill 49" d="M3.433 15.923c-.944-.125-.517-1.4-1.775-7.679C.364 1.779-.51-.076.332 0a4.69 4.69 0 0 1 3.015 1.1 8.753 8.753 0 0 1 1.834 3.946A35.376 35.376 0 0 1 6 12.054c0 .958-.1 3.255-1.1 3.86a3.088 3.088 0 0 1-1.47.009" transform="translate(189 116)" style="fill:#f6ca9f"/>
    <path data-name="Fill 50" d="M60.953.144a49.153 49.153 0 0 0-.809 2.049 6 6 0 0 0 .324 5.156c3.688 6.885 8.138 13.273 11.855 20.149 1.5 2.772 3.873 6.471 4.161 9.765.436 5.007-2.057 10.638-4.34 14.821a89.98 89.98 0 0 1-6.47 10.746c-2.921 3.923-5.56 6.407-12.47 8.056-5.694 1.36-52.128.172-52.986.23a.234.234 0 0 0 .03.466c.859-.057 47.363 1.12 53.066-.24 7.058-1.685 9.751-4.226 12.737-8.231a90.61 90.61 0 0 0 6.5-10.8c2.325-4.256 4.841-9.991 4.4-15.085-.291-3.351-2.688-7.125-4.213-9.946-3.72-6.88-8.169-13.267-11.859-20.152a5.579 5.579 0 0 1-.291-4.791c.077-.233.511-1.332.8-2.012a.234.234 0 0 0-.432-.181" transform="translate(128 134)" style="fill:#ffce9b"/>
    <path data-name="Fill 51" d="M.388 13.853c1-.928 3.091-2.853 4.123-3.716a43.034 43.034 0 0 1 15.681-8.47C28.671-.72 40.371.01 46.812 7.961c4.3 5.309 6.244 13.825 3.357 26.752a.232.232 0 1 0 .452.1c2.93-13.123.917-21.766-3.452-27.155-6.56-8.1-18.465-8.879-27.1-6.449A43.491 43.491 0 0 0 4.218 9.774c-1.037.867-3.141 2.8-4.144 3.732a.238.238 0 0 0-.014.332.229.229 0 0 0 .328.016" transform="translate(82 171)" style="fill:#ffce9b"/>
    <path data-name="Fill 52" d="M16.6.074a.235.235 0 0 1 .1-.065.232.232 0 0 1 .285.16.215.215 0 0 1-.035.2.623.623 0 0 1-.083.083c-.3.272-1.941 1.86-4.443 7.534C9.359 14.945 5.442 20.637.425 27.9a.234.234 0 0 1-.324.059.229.229 0 0 1-.061-.32C5.041 20.4 8.944 14.733 12 7.8 14.56 2 16.253.385 16.561.107L16.6.074" transform="translate(194 175)" style="fill:#ffce9b"/>
    <path data-name="Fill 53" d="M.378 5.942A24.857 24.857 0 0 1 3 3.888 23.409 23.409 0 0 1 8.855.426a.218.218 0 0 0 .13-.285.226.226 0 0 0-.292-.126 23.688 23.688 0 0 0-5.966 3.521A24.853 24.853 0 0 0 .074 5.617a.219.219 0 0 0-.015.312.232.232 0 0 0 .32.013" transform="translate(180 134)" style="fill:#702d19"/>
    <path data-name="Fill 54" d="M.047.4c1.659 2.412 2.78 4.145 5.561 8.5a.2.2 0 0 0 .3.054.271.271 0 0 0 .047-.346C3.172 4.248 2.05 2.511.388.1A.2.2 0 0 0 .082.053.274.274 0 0 0 .047.4" transform="translate(181 122)" style="fill:#702d19"/>
    <path data-name="Fill 55" d="M7.442.046C6.691.166 4 1.2 3.673 1.25A13.4 13.4 0 0 0 .13 2.479a2.134 2.134 0 0 0 .57 2.29c.772.519 4.393.07 6.043-.411a9.409 9.409 0 0 0 2.026-.81c1-.576 1.533-1.1 1.059-2.339A1.94 1.94 0 0 0 7.442.046" transform="translate(170 127)" style="fill:#292718"/>
    <path data-name="Fill 56" d="M0 20.091c.164-.373.927-2.723 1.408-4.532.486-1.829.232-2.873.579-3.026a3.845 3.845 0 0 0 2.335-3.487 2.45 2.45 0 0 0-.247-.876c-.4-1.287-.437-2.654.389-3.3a2 2 0 0 1 1.083-.447c1.349-.022 1.188 1.4 1.633 2 .306.412 1.7-1.093 4.366-4.652C12.181.925 16-.317 16.373.074a18.041 18.041 0 0 1 1.012 5.082c-.022.608-.523 1.068-.516 1.663.024 1.811 1.213 2.855 1.127 3.492-.127.938-1.093.7-1.42.767-.122.026-.164.135-.191.284-.117.649.046.831-.127 1.234-.132.3-.453.6-.6.968a11.426 11.426 0 0 0-.426 1.842c-.191.844.237 1.845-.418 2.582-.6.675-1.993.18-2.624-.148-.445-.231-1.088-.458-1.137-.295-.139.45-.044 2.1-.256 3-.242 1.029-.673 1.835-.839 2.928a22.243 22.243 0 0 0-.024 4.412c.33 1.2-9.939-7.779-9.931-7.8" transform="translate(142 58)" style="fill:#e8b09c"/>
    <path data-name="Fill 57" d="M.028 1.775C-.13 1.635.4.963 1.049.418a1.994 1.994 0 0 1 2.4-.05c.82.42 1.521.163 1.548.751a.937.937 0 0 1-.436.841c-.548.245-1.876-.718-2.439-.7-.967.023-1.715.854-2.1.52" transform="translate(154 62)" style="fill:#513f29"/>
    <path data-name="Fill 58" d="M3 .777c-.175.647-.5 1.211-.712 1.223A7.344 7.344 0 0 1 .394.705 1.685 1.685 0 0 1 0 0c.013-.006.937.3 1.2.4.292.1 1.8.377 1.8.377" transform="translate(155 70)" style="fill:#fff"/>
    <path data-name="Fill 59" d="M.462.116A2.093 2.093 0 0 0 0 1.186a.657.657 0 0 0 .526.7 2.041 2.041 0 0 0 .6.07 2.792 2.792 0 0 1 .542.039c.154.029.3-.016.326-.161s-.042-.191-.194-.22a3.741 3.741 0 0 0-.694-.044 1.481 1.481 0 0 1-.437-.046.372.372 0 0 1-.25-.157.564.564 0 0 1 0-.293A1.812 1.812 0 0 1 .756.415C.85.3.9.138.776.049S.556 0 .462.116" transform="translate(157 67)" style="fill:#ba7258"/>
    <path data-name="Fill 60" d="M3.993.846c.052-.471-.179-.511-.832-.513C.967.324.076-.149.024.048a1.447 1.447 0 0 0 .111.781 3.387 3.387 0 0 0 1.415 1.7c.269.173 1.106.635 1.457.418a.762.762 0 0 0 .193-.361c.052-.486-.438-.509-.908-.68A3.392 3.392 0 0 1 .222.3a5.292 5.292 0 0 0 1.039.526 6.294 6.294 0 0 0 2.364.494c.311-.114.34-.213.369-.473" transform="translate(155 70)" style="fill:#ba7258"/>
    <path data-name="Fill 61" d="M.971 1.8c-.046.14-.286.37-.632.01A1.58 1.58 0 0 1 .064.388C.174.069.638-.2.845.2.986.477.8.777.861 1.062c.06.3.2.463.111.736" transform="translate(146 64)" style="fill:#ba7258"/>
    <path data-name="Fill 62" d="M.008.282a10.481 10.481 0 0 1 .1 3.107 2.032 2.032 0 0 0 .173 1.2 5.511 5.511 0 0 0 2.56 2.141 11.279 11.279 0 0 1 1.8 1.175c.094.084.228.139.31.042s.062-.178-.032-.262a11.85 11.85 0 0 0-1.873-1.23A5.084 5.084 0 0 1 .66 4.5a2.155 2.155 0 0 1-.228-1.093A10.9 10.9 0 0 0 .324.183C.3.057.249-.018.126 0S-.015.156.008.282" transform="translate(148 67)" style="fill:#ba7258"/>
    <path data-name="Fill 63" d="M5.056 21c-.724-1.3-1.732-2.647-2.489-3.964C1.074 14.436-.581 13.151.2 7.884a7.817 7.817 0 0 1 2.17-4.169 20.193 20.193 0 0 1 1.715-1.208A8.706 8.706 0 0 1 5.81.979a6.794 6.794 0 0 1 5.8-.588 24.925 24.925 0 0 1 5.978 3.046c1.47.888 3.816 3.313 3.355 4.1-1.133 1.925-4.164 2.148-5.975 3.2a6.314 6.314 0 0 0-1.987 2.222c-.629 1.045-1.73 2.173-2.653 1.57-.631-.412-.1-1.549-.838-1.814-1.156-.415-2.045.164-2.224 1.533-.151 1.146.39 1.932.451 2.994C7.827 19.137 5.056 21 5.056 21" transform="translate(138 50)" style="fill:#513f29"/>
    <path data-name="Fill 64" d="M13.918 4.234c-.241-1.045-.675-1.534-.82-1.556A41.457 41.457 0 0 1 3.513.357C3.126.236 2.985.171 2.412 0a1.3 1.3 0 0 0 .24.678s.19.094.476.2c.795.3 2.066.878 2.066.878a6.222 6.222 0 0 1-.817 3.649A33.58 33.58 0 0 1 0 2.377c.075.361.185.945.185.945C1.855 4.532 4.2 6.6 4.2 6.6s3.088 7.574 6.246 6.237c1.011-.427 2.252-3.163 2.708-4.626.613-1.969 1.024-2.831.759-3.981" transform="translate(146 63)" style="fill:#494949"/>
    <path data-name="Fill 65" d="M.011.943C-.1.781.712.286 1.018.2A3.277 3.277 0 0 1 2.967.107a.788.788 0 0 1-.039.558c-.039.1-.435-.037-1.071-.013C.543.7.167 1.157.011.943" transform="translate(155 64)" style="fill:#474747"/>
    <path data-name="Fill 66" d="M.123.367a3.747 3.747 0 0 0-.089.185A.3.3 0 0 0 .315 1c.323.006.894-.653.607-.895S.309.058.123.367" transform="translate(157 64)" style="fill:#474747"/>
    <path data-name="Fill 67" d="M0 8.688C2.466 5.766 3.433.317 3.56.078 3.79-.368 10.809 1.229 11 1.7c.079.2-2.687 5.218-1.289 7.627.122.214-2.411 1.611-4.756 1.673A6.068 6.068 0 0 1 0 8.688" transform="translate(151 186)" style="fill:#e8b09c"/>
    <path data-name="Fill 68" d="M27 .309a13.189 13.189 0 0 1-.3 2.575c-.326.566-1.8.759-2.361.848-3.75.609-7.674.026-11.423-.261a28.933 28.933 0 0 0-6.435-.207c-2.448.356-5.958.2-6.108-.237A6.756 6.756 0 0 1 .054.021c.015-.114.976.263 1.646.31 1.465.1 2.929.129 4.4.189 2.019.083 4.051.1 6.065.235 2.994.205 5.965.511 8.973.46C22.438 1.191 27 .309 27 .309" transform="translate(150 200)" style="fill:#464646"/>
    <path data-name="Fill 69" d="M16.895 8.945c5.98.269 10.983-.487 11.1-1.515.094-.835-1.752-1.776-2.33-2.136C23.969 4.237 11.778-.07 10.94 0c-.44.038-.913.553-1.25.8-.981.71-2.046 1.818-3.29 1.965-1.267.149-3.453-.7-5.257-1.308-.59-.2-.788 1.87-.879 2.422C-.2 6.707.08 7.328.126 7.542c.131.609 4.887.232 6.276.292 1.593.071 3.186-.053 4.773.147 1.917.239 3.785.879 5.719.964" transform="translate(150 193)" style="fill:#bc9670"/>
    <path data-name="Fill 70" d="M5.878 6a.23.23 0 0 1-.149-.055.234.234 0 0 1-.029-.326l.1-.108a12.381 12.381 0 0 0 1.4-1.853c.108-.19.193-.35.267-.5l-.397-.116c-.678-.192-1.811-.512-2.924-.92C2.713 1.6 1.279.949.59.638.406.556.273.5.2.465L.177.455A.207.207 0 0 1 .108.428a.226.226 0 0 1-.1-.142A.23.23 0 0 1 .035.11.214.214 0 0 1 .225 0a.493.493 0 0 1 .156.041c.072.03.2.089.385.172.688.31 2.114.952 3.538 1.475 1.106.407 2.235.727 2.91.918.29.082.5.141.586.173a.3.3 0 0 1 .186.163.232.232 0 0 1 0 .166 6.51 6.51 0 0 1-.392.781 12.923 12.923 0 0 1-1.466 1.942l-.075.088A.23.23 0 0 1 5.878 6z" transform="translate(159 195)" style="fill:#97734b"/>
    <path data-name="Fill 71" d="M1.626.063a7.8 7.8 0 0 0-.578.647A6.837 6.837 0 0 0 .013 2.664a.26.26 0 0 0 .133.321.219.219 0 0 0 .287-.148 6.285 6.285 0 0 1 .958-1.805 6.657 6.657 0 0 1 .535-.6.269.269 0 0 0 .017-.348.209.209 0 0 0-.317-.02" transform="translate(164 195)" style="fill:#97734b"/>
    <path data-name="Fill 72" d="M1.628.068a7.4 7.4 0 0 0-.54.642A10.364 10.364 0 0 0 .023 2.645a.26.26 0 0 0 .1.329.212.212 0 0 0 .3-.11 9.934 9.934 0 0 1 1.01-1.841 6.692 6.692 0 0 1 .5-.6.267.267 0 0 0 .006-.346.2.2 0 0 0-.311-.009" transform="translate(162 194)" style="fill:#97734b"/>
    <path data-name="Fill 73" d="M1.568.078A6.534 6.534 0 0 0 1.053.7 12.685 12.685 0 0 0 .026 2.629a.258.258 0 0 0 .114.344.25.25 0 0 0 .337-.117 12.238 12.238 0 0 1 .98-1.848 5.788 5.788 0 0 1 .474-.574.26.26 0 0 0-.008-.362.248.248 0 0 0-.355.006" transform="translate(160 194)" style="fill:#97734b"/>
    <path data-name="Fill 74" d="M3.586 21.656C-.09 18.792-.49 15.46.4 9.026.81 6.088 2.178-.653 2.783.051 3.79 1.219 13.566 6.844 26.4 8.62c14.675 2.027 26.492 4.16 27.365 7.422 1.622 6.063-5.629 22.65-9.349 31.158-.376.861-3.07 6.562-4.341 10.316-1.07 3.158-1.349 4.123-1.742 4.367-.809.5-1.514-.714-4.64-1.271a14.076 14.076 0 0 1-5.9-2.336c-.345-.352 1.345-2.852 2.8-6.856 1.72-4.743 3.56-6.345 4.828-12.658a53.276 53.276 0 0 1 4.339-14.381c.176-.378-28.445 3.3-36.173-2.723" transform="translate(125 129)" style="fill:#464646"/>
    <path data-name="Fill 75" d="M9.872 3.594A22.193 22.193 0 0 0 6.055 2.2a26.668 26.668 0 0 1-3.505-.861A13.885 13.885 0 0 1 .356.038.237.237 0 0 0 .04.092.206.206 0 0 0 .1.389a14.436 14.436 0 0 0 2.273 1.343 27.1 27.1 0 0 0 3.566.881 21.756 21.756 0 0 1 3.735 1.366.234.234 0 0 0 .3-.1.208.208 0 0 0-.1-.286" transform="translate(154 185)" style="fill:#292718"/>
    <path data-name="Fill 76" d="M0 4.514c.208.124 2.978.418 3.332.485S4.219.591 3.9.525A18.338 18.338 0 0 0 1.211.017C.946.98 0 4.514 0 4.514" transform="translate(161 125)" style="fill:#e8b09c"/>
    <path data-name="Fill 77" d="M0 4.979a.394.394 0 0 0 .219.4 5.176 5.176 0 0 0 4.231.4C5.674 5.43 5.815 3.74 7.231 3.706c.984-.025 2.234.045 2.557.858.067.167.35.957.207 1.255A9.307 9.307 0 0 1 8.985 7.4c-.217.263-.173.479.2.593.457.14 2.612-1.6 2.73-2.118a4.6 4.6 0 0 0-.44-2.76A6.563 6.563 0 0 0 9.964.34c-.77-.624-2.426-.216-3.3-.125C6.093.274 1.488.311.686.8A25.323 25.323 0 0 0 0 4.979" transform="translate(163 125)" style="fill:#464646"/>
    <path data-name="Fill 78" d="M21.907.657c3.274 1.254 5.571 5.66 6.422 12.329.453 3.553-.05 5.709-.256 9.264q-.368 6.393-.462 12.8c-.031 2.052-.117 6.7.44 8.73.043.156 3.406 2.243 4.679 3.221.471.36.752.889 1.24 1.155.242.133 2.726 1.071 2.946 1.211.367.234-.5 6.136-1.995 6.3a16.924 16.924 0 0 1-2.752-.719c-.949-.266-1.186.315-2.795-.164-.934-.28-1.962-.987-2.151-.569-1.344 2.974-1.749 3.184-2.283 4.521a6.7 6.7 0 0 0-.221 3.317c.132 1.058-1 .927-1.387.936a35.41 35.41 0 0 1-18.219-4.442A18.71 18.71 0 0 1 .7 54.729c-.338-.423-.9-1.135-.627-1.448a8.134 8.134 0 0 0 1.559-2.953c.45-1.16-.016-3.454.182-4.491C3.776 35.577 2.945 25.485 5.7 15.173 7.853 7.127 13.3-2.638 21.9.657" transform="translate(127 76)" style="fill:#bd8953"/>
    <path data-name="Fill 79" d="M6.759 21a.239.239 0 0 1-.112-.028 6.512 6.512 0 0 1-1.821-1.6c-.359-.422-.726-.9-1.114-1.4-.525-.683-1.119-1.457-1.807-2.234-.118-.133-.405-.38-.709-.641a13.239 13.239 0 0 1-.979-.897 1.032 1.032 0 0 1-.182-.252.342.342 0 0 1-.035-.174 2.943 2.943 0 0 1 .631-1.327l.112-.16a9.511 9.511 0 0 0 1.448-2.764C2.767 7.7 3.59 4.466 3.952 2.614l.066-.348C4.141 1.614 4.37.4 4.445.191A.268.268 0 0 1 4.658 0h.029a.233.233 0 0 1 .125.035.236.236 0 0 1 .108.14.238.238 0 0 1-.029.2l-.179.885-.005.026v.017c-.114.563-.243 1.2-.282 1.4-.365 1.856-1.193 5.109-1.776 6.965a10 10 0 0 1-1.509 2.891l-.007.01-.106.153a2.711 2.711 0 0 0-.541 1.042 3.223 3.223 0 0 0 .252.279c.224.217.523.474.812.722.307.264.6.513.715.647a40.96 40.96 0 0 1 1.806 2.234c.39.508.758.987 1.12 1.411a6.03 6.03 0 0 0 1.685 1.491.241.241 0 0 1-.117.452z" transform="translate(148 99)" style="fill:#702d19"/>
    <path data-name="Fill 80" d="M17.865 35.55c-.651-.305-1.412-.442-2.089-.686a69.846 69.846 0 0 1-6.966-3.438c-1.613-.793-3.266-1.464-4.922-2.15-.414-.172-.991-.346-1.487-.6a2 2 0 0 1-.738-.572 2.662 2.662 0 0 1-.386-1.45 6.631 6.631 0 0 0-.2-1.711C.3 22.579.472 20.276.469 17.819c0-3.455-.015-6.9.109-10.357C.64 5.763.914 3.483.912.237A.234.234 0 0 0 .684 0a.235.235 0 0 0-.23.237c0 3.237-.271 5.512-.333 7.207C0 10.9.007 14.359.012 17.819c0 2.51-.16 4.862.633 7.274a6.21 6.21 0 0 1 .175 1.585 3.124 3.124 0 0 0 .473 1.7 2.474 2.474 0 0 0 .907.722c.507.26 1.1.439 1.518.613 1.648.685 3.292 1.352 4.9 2.14a70.01 70.01 0 0 0 7.011 3.458c.663.239 1.41.37 2.05.671a.229.229 0 0 0 .3-.118.238.238 0 0 0-.114-.312" transform="translate(136 93)" style="fill:#702d19"/>
    <path data-name="Fill 81" d="M22.7 9.372c-1.532.431-4.594-.09-5.414-.2-2.552-.346-4.631-1.693-6.927-2.742C6.82 4.813 3.237 3.416.419.084A.238.238 0 0 0 .086.055a.23.23 0 0 0-.03.329c2.868 3.39 6.5 4.825 10.1 6.468 2.34 1.069 4.461 2.431 7.063 2.782.849.115 4.022.636 5.609.188a.234.234 0 0 0 .162-.289.239.239 0 0 0-.293-.16" transform="translate(129 125)" style="fill:#702d19"/>
    <path data-name="Fill 82" d="M2.465.229a7.642 7.642 0 0 1-2.39 5.38.208.208 0 0 0 .008.327.3.3 0 0 0 .379-.009A8.094 8.094 0 0 0 3 .232.25.25 0 0 0 2.735 0a.251.251 0 0 0-.269.229" transform="translate(158 124)" style="fill:#702d19"/>
    <path data-name="Fill 83" d="M44.914 6.224c4.887 7.838.873 17.951 1.625 18.215.454.16.857-1.075 1.224-2.217a26.166 26.166 0 0 0 1.073-4.8c.645-5.513-.468-13.474-5.881-16.415C38.9-1.2 34.246.6 30.591 2.784c-1.209.723-3.7 1.87-4.969 2.822-.205.154-.94-.974-1.271-1.026-.6-.095-10.558-1.117-15.245-1.386a30.081 30.081 0 0 0-5.815-.039c-.75.174-.852 1.793-.836 2.444C2.488 7.114 1.5 21.675.56 33.782.4 35.893-.215 46.148.078 46.876c.178.439 5.869.639 8.031.781 2.775.181 12.022.347 12.912.344.624 0 8.413-5.275 9.006-6.468.024-.047-.052-.677-.076-1.419-.038-1.144.041-1.938-.016-1.9-3.453 2.531-6.084 5.192-6.183 4.987-.266-.549.776-6.641.845-8.6.16-4.5.036-10.334 1.071-15.121.565-2.617.464-3.41 3.482-10.292.088-.2-.99-1.081-.93-1.17.343-.5 5.334-3.268 6.3-3.707 3.292-1.491 7.5-2.724 10.391 1.912" transform="translate(106 74)" style="fill:#f6ca9f"/>
    <path data-name="Fill 84" d="M3.509.213a69.896 69.896 0 0 0-.192 3.069c-.1 2.189-.556 4.81-.611 7-.084 3.313-.5 6.68-.728 9.876-.227 3.162-.271 6.151-.613 9.38C.934 33.571.686 37.729 0 41.732a.234.234 0 0 0 .2.265.247.247 0 0 0 .288-.197c.684-4.012.935-8.178 1.365-12.219.342-3.234.386-6.229.615-9.4.231-3.2.644-6.577.728-9.9.055-2.189.516-4.806.611-6.994.044-1.017.1-2.036.192-3.05A.236.236 0 0 0 3.774 0a.243.243 0 0 0-.265.212" transform="translate(127 80)" style="fill:#bc9670"/>
    <path data-name="Fill 85" d="M20.771 1.5c-2.618-.024-5.184-.12-6.676-.238C9.264.875 5.052.41.247 0A.236.236 0 0 0 0 .233.245.245 0 0 0 .211.5c4.806.409 9.021.872 13.85 1.257 1.5.12 4.077.218 6.707.24A.242.242 0 0 0 21 1.751a.241.241 0 0 0-.229-.253" transform="translate(107 113)" style="fill:#bc9670"/>
    <path data-name="Fill 86" d="M1.7.054A15.226 15.226 0 0 1 .074 1.545a.319.319 0 0 0-.037.355.158.158 0 0 0 .263.049A15.547 15.547 0 0 0 1.927.454.317.317 0 0 0 1.961.1.157.157 0 0 0 1.7.054" transform="translate(128 117)" style="fill:#bc9670"/>
    <path data-name="Fill 87" d="M4.587.06A29.872 29.872 0 0 0 .051 4.587a.261.261 0 0 0 .049.362.25.25 0 0 0 .355-.049A29.227 29.227 0 0 1 4.909.459a.264.264 0 0 0 .033-.365.247.247 0 0 0-.355-.034" transform="translate(130 82)" style="fill:#bc9670"/>
    <path data-name="Fill 88" d="M1.47.076a9.039 9.039 0 0 0-1.4 1.4.33.33 0 0 0 .065.46.323.323 0 0 0 .454-.066A8.538 8.538 0 0 1 1.883.581a.333.333 0 0 0 .043-.463.322.322 0 0 0-.456-.042" transform="translate(130 80)" style="fill:#bc9670"/>
    <path data-name="Fill 89" d="M21.78 2h-.016c-.068-.005-6.882-.476-8.271-.591-.39-.034-1.241-.09-2.23-.158-1.81-.122-4.289-.288-5.532-.413C3.847.648.241.424.2.421A.213.213 0 0 1 0 .2.216.216 0 0 1 .234 0c.035 0 3.65.227 5.543.417 1.236.124 3.71.29 5.518.412.988.066 1.843.124 2.235.156 1.387.117 8.2.588 8.266.591A.215.215 0 0 1 22 1.8a.218.218 0 0 1-.219.2" transform="translate(108 86)" style="fill:#bc9670"/>
    <path data-name="Fill 90" d="M.992 14a.5.5 0 0 1-.508-.416 27.338 27.338 0 0 1-.429-5.728C.317 6.237 1.349 2.441 6.917.776c7.061-2.111 9.125.7 9.808 1.183 2.286 1.621 4.529 4.683 5.167 5.305 0 0 5.045.689 5.782.714s1.428.129 1.314.889S28.4 12 22.19 11.493c-4.574-.377-7.6-.444-7.6-.444s-5.468 1.671-8.746 2.344A23.408 23.408 0 0 1 .992 14" transform="translate(138 49)" style="fill:#856544"/>
    <path data-name="Fill 91" d="M1.569 13a.188.188 0 0 1-.177-.114A23.355 23.355 0 0 1 .1 7.657c-.43-3.712.472-6.35 2.606-7.63A.2.2 0 0 1 2.97.08a.169.169 0 0 1-.057.242c-4.881 2.925-1.207 12.347-1.17 12.442a.171.171 0 0 1-.109.225.214.214 0 0 1-.065.011" transform="translate(142 50)" style="fill:#702d19"/>
    <path data-name="Fill 92" d="M9.819 10a.178.178 0 0 1-.174-.129 18.953 18.953 0 0 0-2.123-4.7C6.162 3.039 3.784.467.174.339A.175.175 0 0 1 0 .163.176.176 0 0 1 .188 0c2.987.106 5.633 1.838 7.649 5.008A19.182 19.182 0 0 1 9.994 9.79a.167.167 0 0 1-.132.205.19.19 0 0 1-.043.005" transform="translate(145 50)" style="fill:#702d19"/>
    <path data-name="Fill 93" d="M1.988.274c.084.246-.288.547-.835.672S.1.972.012.726.3.179.846.054 1.9.028 1.988.274" transform="translate(144 49)" style="fill:#702d19"/>
    <path data-name="Fill 94" d="M.167 4a.17.17 0 0 1-.16-.122.177.177 0 0 1 .111-.219A13.841 13.841 0 0 0 5.7.062a.164.164 0 0 1 .241-.021.181.181 0 0 1 .02.246 13.9 13.9 0 0 1-5.743 3.7A.158.158 0 0 1 .167 4" transform="translate(153 56)" style="fill:#702d19"/>
    <path data-name="Fill 95" d="M0 2.288a94.6 94.6 0 0 0 10.157.691C12.907 2.815 13.935 1.023 14 0c0 0-.484 2.4-3.675 2.57a53.042 53.042 0 0 1-9.287-.754L0 2.288" transform="translate(153 58)" style="fill:#702d19"/>
</svg>
