<svg width="27" height="27" viewBox="0 0 27 27" xmlns="http://www.w3.org/2000/svg">
    <path d="M13.5 0C6.09 0 .06 6.03 0 13.41c-.03 3.6 1.35 7.02 3.9 9.57 2.52 2.58 5.91 3.99 9.51 4.02h.09c7.41 0 13.44-6.03 13.5-13.41C27.06 6.15 21.03.06 13.5 0zm6.54 18-.57.57-.03.03c-.99.99-1.83 1.23-3.15.84-1.38-.42-2.61-1.17-3.72-2.07-1.59-1.29-3.3-2.97-4.41-4.71-1.11-1.8-1.47-3.69.09-5.25l.03-.03.57-.57c.42-.42 1.11-.42 1.56 0l1.77 1.77c.42.42.42 1.11 0 1.56l-1.05 1.05.03.03c1.17 1.77 2.7 3.3 4.47 4.47l.03.03 1.05-1.05c.42-.42 1.11-.42 1.56 0l1.77 1.77c.45.45.45 1.14 0 1.56z" fill="#292929" fill-rule="nonzero"/>
</svg>
