<?xml version="1.0" encoding="UTF-8"?>
<svg width="310px" height="218px" viewBox="0 0 310 218" version="1.1" xmlns="http://www.w3.org/2000/svg" xmlns:xlink="http://www.w3.org/1999/xlink">
    <title>1A318552-FD37-46FF-91EF-00258A3C87B8</title>
    <defs>
        <rect id="path-1" x="0" y="0" width="250" height="158" rx="10"></rect>
        <filter x="-21.0%" y="-23.7%" width="142.0%" height="166.5%" filterUnits="objectBoundingBox" id="filter-2">
            <feOffset dx="0" dy="15" in="SourceAlpha" result="shadowOffsetOuter1"></feOffset>
            <feGaussianBlur stdDeviation="15" in="shadowOffsetOuter1" result="shadowBlurOuter1"></feGaussianBlur>
            <feColorMatrix values="0 0 0 0 0   0 0 0 0 0   0 0 0 0 0  0 0 0 0.1 0" type="matrix" in="shadowBlurOuter1"></feColorMatrix>
        </filter>
    </defs>
    <g id="Page-1" stroke="none" stroke-width="1" fill="none" fill-rule="evenodd">
        <g id="Preffered-method" transform="translate(-33.000000, -477.000000)">
            <g id="Mastercard" transform="translate(63.000000, 492.000000)">
                <g id="Group" fill-rule="nonzero">
                    <g id="BG-14">
                        <use fill="black" fill-opacity="1" filter="url(#filter-2)" xlink:href="#path-1"></use>
                        <use fill="#FFFFFF" xlink:href="#path-1"></use>
                    </g>
                </g>
                <g id="Mastercard_" transform="translate(20.000000, 20.000000)" fill="#95989A" font-family="Poppins-Regular, Poppins" font-size="20" font-weight="normal">
                    <text id="Mastercard">
                        <tspan x="0" y="21">Mastercard</tspan>
                    </text>
                </g>
                <g id="_3456" transform="translate(20.000000, 69.000000)" fill="#95989A" font-family="Poppins-Regular, Poppins" font-size="15" font-weight="normal">
                    <text id="****-****-****-3456">
                        <tspan x="0" y="15">**** **** **** 3456</tspan>
                    </text>
                </g>
                <g id="Group_33" transform="translate(20.000000, 110.000000)" fill="#95989A" font-family="Poppins-Regular, Poppins" font-weight="normal">
                    <g id="Valid_Thru_" font-size="8">
                        <text id="Valid-Thru">
                            <tspan x="0" y="8">Valid Thru</tspan>
                        </text>
                    </g>
                    <g id="_12_23" transform="translate(0.000000, 9.000000)" font-size="11">
                        <text id="12/23">
                            <tspan x="0" y="12">12/23</tspan>
                        </text>
                    </g>
                </g>
                <g id="icons8-MasterCard" transform="translate(169.000000, 101.000000)" fill-rule="nonzero">
                    <path d="M61,19.182 C61,29.2236413 52.8596413,37.364 42.818,37.364 C32.7763587,37.364 24.636,29.2236413 24.636,19.182 C24.636,9.14035868 32.7763587,1 42.818,1 C47.6402475,0.999734757 52.2650645,2.91524765 55.6749084,6.32509158 C59.0847523,9.73493552 61.0002652,14.3597525 61,19.182 L61,19.182 Z" id="Path_117" fill="#FFC107"></path>
                    <path d="M28.3,30.091 C27.4481332,28.9664194 26.7306004,27.7461438 26.162,26.455 L35.843,26.455 C36.3558616,25.2868663 36.7436871,24.0677468 37,22.818 L25,22.818 C24.7539043,21.6216665 24.6302666,20.403383 24.631,19.182 L37.364,19.182 C37.3629109,17.9606289 37.2409837,16.7423618 37,15.545 L25,15.545 C25.2591666,14.2953453 25.6496683,13.0765776 26.165,11.909 L35.846,11.909 C35.2773996,10.6178562 34.5598668,9.39758065 33.708,8.273 L28.3,8.273 C29.0895289,7.21158453 29.992171,6.23919897 30.992,5.373 C25.3265342,0.514031363 17.2674108,-0.390003131 10.666188,3.09294615 C4.06496509,6.57589543 0.262033992,13.7386088 1.07486402,21.157934 C1.88769405,28.5772592 7.15123847,34.7466877 14.3499822,36.7177707 C21.5487259,38.6888538 29.2209497,36.0613591 33.7,30.091 L28.3,30.091 Z" id="Path_118" fill="#FF3D00"></path>
                </g>
            </g>
        </g>
    </g>
</svg>