<svg xmlns="http://www.w3.org/2000/svg" width="21.777" height="21.777" viewBox="0 0 21.777 21.777">
    <path data-name="Phone" d="M12.824 18.629c-2.822 0-6.061-1.554-8.666-4.157A14.077 14.077 0 0 1 .177 7.515a6.288 6.288 0 0 1 1.415-5.876A5.345 5.345 0 0 1 4.67.1l.69-.1L7.9 5.918 5.36 7.186a14.758 14.758 0 0 0 2.648 3.436 15.15 15.15 0 0 0 3.421 2.627l1.192-2.334 5.882.84.035.75a5.824 5.824 0 0 1-1.548 4.533 5.73 5.73 0 0 1-4.166 1.591zM4.265 2.055a3.54 3.54 0 0 0-1.39.869c-1.009 1.009-1.295 2.646-.8 4.61a12.572 12.572 0 0 0 3.37 5.655c2.221 2.221 5.063 3.6 7.417 3.6a3.92 3.92 0 0 0 2.849-1.035 3.7 3.7 0 0 0 1.007-2.422l-3.059-.432-.586 1.174a1.79 1.79 0 0 1-1.073.912 1.81 1.81 0 0 1-.546.084 1.871 1.871 0 0 1-.89-.226 16.951 16.951 0 0 1-3.837-2.938 16.647 16.647 0 0 1-2.968-3.855 1.824 1.824 0 0 1 .791-2.489l1-.5-1.285-3.007z" transform="translate(1.597 1.55)" style="fill:#fff"/>
</svg>
