<svg data-name="Group 2" xmlns="http://www.w3.org/2000/svg" width="441" height="669.21" viewBox="0 0 441 669.21">
    <path d="m388.291 100.417 4.4 228.453c0 39.9 40.163 45.707-58.553 40.521H13.291c-29.906 0 0-32.346 0-72.248V119.6C59.531 47.177 126.385 3.895 197.637.25s140.395 32.682 190.654 100.167z" transform="translate(23.307 298.21)" style="opacity:.3;fill:#856544"/>
    <circle cx="63.208" cy="63.208" r="63.208" transform="translate(161.812 361.922)" style="opacity:.2;fill:#bd8953"/>
    <circle data-name="Ellipse_95 Copy" cx="16" cy="16" r="16" transform="translate(272 210)" style="fill:#856544"/>
    <circle data-name="Ellipse_95 Copy 4" cx="33" cy="33" r="33" transform="translate(2 219)" style="fill:#856544"/>
    <circle data-name="Ellipse_95 Copy 3" cx="33" cy="33" r="33" transform="translate(375 43)" style="fill:#856544"/>
    <circle data-name="Ellipse_95 Copy 2" cx="53" cy="53" r="53" style="fill:#856544"/>
    <circle cx="50.895" cy="50.895" r="50.895" transform="translate(174.125 374.235)" style="fill:#bd8953"/>
    <path d="M17.937 50.539 0 27.478l10.431-8.113 8.492 10.919L47.612 0l9.594 9.088z" transform="translate(201.147 396.351)" style="fill:#fff"/>
</svg>
