<svg xmlns="http://www.w3.org/2000/svg" width="279.292" height="207.012" viewBox="0 0 279.292 207.012">
    <g data-name="Group 94">
        <path d="M153.273 96.342c-11.926 67.727-76.451 84.5-117.052 70.337 0 0-45.471-17.093-33.345-57.929C8 91.486 3.9 77.608 1.471 64.7c-3.318-17.62-3.522-33.435 27.136-53.578C49.229-2.427 74.432-2.816 96.849 5.743c35.316 13.483 63.72 49.17 56.424 90.599z" style="opacity:.271;fill:#bd8953"/>
        <path data-name="Path" d="M144.746 42.04c-11.926 67.727-76.451 84.5-117.052 70.337 0 0-17.28-6.5-27.694-21.044 0 0 20.136 12.757 55.788 2.595C94.794 82.81 107.708 21.161 139.963 0a73.993 73.993 0 0 1 4.783 42.04z" transform="translate(8.527 54.302)" style="fill:rgba(255,255,255,.4);opacity:.674"/>
        <path data-name="Path" d="M16.817 71.091a65.591 65.591 0 0 0 5.269 5.3 318.5 318.5 0 0 0 32.956 26.15c.7.475 1.4.959 2.111 1.426 7.328 4.9 14.418 9 20.133 11.172 2.106.794 4.222 1.5 6.363 2.1h.017c17.438 4.945 36.048 3.154 60.752-10.773C172.152 90.835 175.43 62.365 183.9 46.4a22.365 22.365 0 0 1 4.125-5.433c11.4-11.256 34.428-14.232 35.1-14.317-.607-.459-22.966-16.735-59.752-22.727-2.5-.4-5.037-.777-7.577-1.114-35.361-4.709-73.769-2.834-90.132.77-.018 0-.038.015-.055.013s-.028.006-.054.013A51.2 51.2 0 0 0 58.4 5.983a.75.75 0 0 1-.148.058C54.6 7.51 50.436 9.418 46.3 11.413c-7.406 3.593-14.735 7.5-18.891 9.749-2.159 1.186-3.465 1.908-3.465 1.908l-5.207.117-17.67 15.849s-.735 2.633-1.06 4.125c-.16.75 2.266 8.65 5.14 12.686 2.026 2.879 4.47 6.127 6.792 9.123a257.355 257.355 0 0 0 4.878 6.121z" transform="translate(56.16 24.671)" style="fill:#634a36"/>
        <path data-name="Path" d="M16.468 71.091a65.592 65.592 0 0 0 5.269 5.3 318.5 318.5 0 0 0 32.956 26.15c.7.475 1.4.959 2.111 1.426 7.328 4.9 14.418 9 20.133 11.172 2.106.794 4.222 1.5 6.363 2.1h.017s.595-3.015 1.872-7.879a199.046 199.046 0 0 1 13.567-37.047c7.014-14.071 16.6-27.411 29.193-33.132 25.606-11.635 55.6 7.222 55.6 7.222l4.125-5.433-32.22-38.16c-35.368-4.71-73.776-2.835-90.138.769-.018 0-.038.015-.055.013s-.028.006-.054.013a51.2 51.2 0 0 0-7.159 2.379.75.75 0 0 1-.148.058c-3.646 1.468-7.813 3.377-11.953 5.372-7.406 3.593-14.735 7.5-18.891 9.749-2.159 1.186-3.465 1.908-3.465 1.908l-5.207.117L3.824 36a.036.036 0 0 0-.012.025 4.154 4.154 0 0 1-.132.367C3.046 38.3.337 46.272.009 47.763c-.16.751 1.915 4.044 4.785 8.076 2.026 2.879 4.47 6.127 6.792 9.123a254.946 254.946 0 0 0 4.882 6.129z" transform="translate(55.056 24.671)" style="fill:#413123;opacity:.62"/>
        <path data-name="Path" d="m131.94 66.411-1.415 1.075S70.128 5.505 0 2.209c0 0 41.992-5.386 60.729.664s71.211 63.538 71.211 63.538z" transform="translate(135.353 23.451)" style="fill:#93653e"/>
        <path data-name="Path" d="M0 1.885c17.189 1.325 34.281 6.8 50.057 14.042 41.735 19.143 74.156 50.681 74.156 50.681 10.8-22.331 6.2-38.537 6.2-38.537a.039.039 0 0 0-.026-.012C69.34-10.465 0 1.885 0 1.885z" transform="translate(143.078 23.253)" style="fill:#bd8953"/>
        <path data-name="Path" d="M0 1.885c17.189 1.325 34.281 6.8 50.057 14.042 39.36-7.526 79.1 11.525 80.334 12.131C69.34-10.465 0 1.885 0 1.885z" transform="translate(143.078 23.253)" style="fill:#bd8953"/>
        <path data-name="Path" d="M13.175 15.194s-3.149 3.064-5.651 1.18a17.152 17.152 0 0 0-.734-2.531 4.655 4.655 0 0 0-1.124-1.853 2.12 2.12 0 0 0-.459-.286c-.826-.367-1.269.158-3.507-3.621 0 0-.787.056-1.434-1.686S.3 4.935.744 4.654c0 0-.028-1.1.843-1.236l.872-.14s-.113-.928 1.153-1.152a.691.691 0 0 1 .588.194c-.027-.057-.765-1.641.367-2.3A.927.927 0 0 1 5.5.41a5.788 5.788 0 0 0 3.341 1.152c1.067-.028 1.631.59 1.911 2.111s-.337 5.523-.14 6.584 2.563 4.937 2.563 4.937z" transform="translate(14.597 55.41)" style="fill:#fed194"/>
        <path data-name="Path" d="M.017 0a4.947 4.947 0 0 0 .954.67 7.885 7.885 0 0 0 1.064.486c.184.069.367.125.551.2a2.258 2.258 0 0 1 .519.283 1.437 1.437 0 0 1 .578 1.01A2.269 2.269 0 0 1 3.466 3.8a3.9 3.9 0 0 1-.327.491 6.538 6.538 0 0 0-.326.486 2.294 2.294 0 0 0-.351 1.095 2.086 2.086 0 0 0 .309 1.107l-.024.015a2.007 2.007 0 0 1-.431-1.124 2.367 2.367 0 0 1 .31-1.2 4.979 4.979 0 0 1 .318-.517 3.56 3.56 0 0 0 .287-.459c.017-.03.031-.08.048-.119s.028-.084.043-.126a2.347 2.347 0 0 0 .063-.258 1.736 1.736 0 0 0 .022-.509 1.174 1.174 0 0 0-.459-.826 2.012 2.012 0 0 0-.448-.269c-.159-.069-.356-.14-.539-.218A6.7 6.7 0 0 1 .9.806 4.137 4.137 0 0 1 0 .028z" transform="translate(18.798 57.721)" style="fill:#f59d4e"/>
        <path data-name="Path" d="M.03 0c.281.668.575 1.331.9 1.977a6.057 6.057 0 0 0 .541.936A1.082 1.082 0 0 0 1.564 3c.016.014.036.025.053.038a.236.236 0 0 0 .057.033.374.374 0 0 0 .251.039.682.682 0 0 0 .4-.321l.024.014a.779.779 0 0 1-.136.259.578.578 0 0 1-.263.191.541.541 0 0 1-.367-.014.43.43 0 0 1-.081-.036.762.762 0 0 1-.074-.045c-.044-.037-.092-.076-.131-.115A4.286 4.286 0 0 1 .681 2.1C.6 1.93.524 1.764.453 1.6l-.1-.256a4.106 4.106 0 0 1-.091-.263A5.6 5.6 0 0 1 0 .007z" transform="translate(19.975 58.525)" style="fill:#f59d4e"/>
        <path data-name="Path" d="M.025 0c.246.51.5 1.019.753 1.523a24.903 24.903 0 0 0 .609 1.119c.037.061.073.121.113.179a.955.955 0 0 0 .127.162 2.046 2.046 0 0 0 .724.41 1.791 1.791 0 0 0 .409.083 1.278 1.278 0 0 0 .413-.044 1.312 1.312 0 0 0 .642-.509A1.137 1.137 0 0 0 4 2.548a.611.611 0 0 0-.021-.4L4 2.129a.631.631 0 0 1 .092.441 1.193 1.193 0 0 1-.16.43 1.927 1.927 0 0 1-.132.2l-.073.092-.037.043-.043.043c-.03.028-.06.057-.092.084a.964.964 0 0 1-.1.07l-.055.031-.057.027c-.038.017-.076.037-.116.051a1.367 1.367 0 0 1-.49.077 2.033 2.033 0 0 1-.474-.075 2.289 2.289 0 0 1-.435-.184 2 2 0 0 1-.4-.275.835.835 0 0 1-.092-.107l-.022-.028-.014-.026-.03-.048c-.045-.066-.08-.129-.117-.193A8.462 8.462 0 0 1 .946 2.4C.82 2.141.694 1.886.585 1.623A12.843 12.843 0 0 1 0 .013z" transform="translate(17.05 58.681)" style="fill:#f59d4e"/>
        <path data-name="Path" d="M.021 0c.19.414.4.82.626 1.215a6.438 6.438 0 0 0 .779 1.115 2.157 2.157 0 0 0 .246.23.734.734 0 0 0 .295.144 1.878 1.878 0 0 0 .672-.004.994.994 0 0 0 .57-.33 1.17 1.17 0 0 0 .244-.62h.027a1.1 1.1 0 0 1-.159.709 1.124 1.124 0 0 1-.636.449 1.554 1.554 0 0 1-.38.064h-.19l-.092-.006h-.046a.307.307 0 0 1-.052-.006.944.944 0 0 1-.412-.184 2.456 2.456 0 0 1-.287-.258 4.525 4.525 0 0 1-.431-.578 6.482 6.482 0 0 1-.335-.617A6.1 6.1 0 0 1 0 .01z" transform="translate(15.339 60.058)" style="fill:#f59d4e"/>
        <path data-name="Path" d="M.006.958A.71.71 0 0 0 .282.835.626.626 0 0 0 .465.6.876.876 0 0 0 .544.31V.156L.537 0h.027a.642.642 0 0 1 .129.152.776.776 0 0 1 .066.184.649.649 0 0 1-.05.395.587.587 0 0 1-.309.29.433.433 0 0 1-.4-.027z" transform="translate(16.296 62.521)" style="fill:#f59d4e"/>
        <path data-name="Path" d="M1.582 2.553A4.655 4.655 0 0 0 .459.7 2.12 2.12 0 0 0 0 .414 6.18 6.18 0 0 0 3.182.081c1.148-.517-.094 1.571-1.6 2.472z" transform="translate(19.809 66.7)" style="fill:#f59d4e"/>
        <path data-name="Path" d="M44.175 15.894S35.789 37.976 23.3 38.816a13.284 13.284 0 0 1-10.62-4.21C7.838 29.764 5.42 22.067 3.924 18.6c-2.329-5.4-1.3-5.52-1.3-5.52C2.41 11.791.267 7.415.056 6.88s.234-.467.234-.467a9.712 9.712 0 0 0 5.987-2.632c.4-.419.675.117.675.117a44.687 44.687 0 0 0 3.212 5.531c2.143-1.9 8.212 8.049 8.212 8.049 6.58-11.04 9.782-15.2 11.1-16.7A6.009 6.009 0 0 1 30.245 0z" transform="translate(21.209 64.962)" style="fill:#fff"/>
        <path data-name="Path" d="M5.421 1.813S5.484 3.96.39 5.3c0 0-1.025.062.248-.776S4.071 1.936 4.249 0z" transform="translate(25.952 72.574)" style="fill:#aeb6b7"/>
        <path data-name="Path" d="M0 1.089s5.218 6.663 6.625 13.675c0 0 .662.76.631-1.607C7.2 9 .653 0 .653 0z" transform="translate(39.586 81.346)" style="fill:#aeb6b7"/>
        <path data-name="Path" d="M31.494 15.894s-4.022 10.59-10.646 17.382c-2.937 3.015-6.39 5.281-10.229 5.54A13.284 13.284 0 0 1 0 34.606c19.147 7.366 22.429-10.1 20.4-15.183S16.986 1.358 16.986 1.358a4.49 4.49 0 0 1-.2-.575A6.01 6.01 0 0 1 17.562 0l4.059 4.632z" transform="translate(33.889 64.962)" style="fill:#d2d7db;opacity:.54"/>
        <path data-name="Path" d="M2.4 28.793c4.85-7.938 2.212-14.633 1.094-17.918S0 .019 0 .019a18.688 18.688 0 0 1 3.175.13l9.87 11.267S9.023 22 2.4 28.793z" transform="translate(52.339 69.441)" style="fill:#aeb6b7"/>
        <path data-name="Path" d="M3.756 14.939s.918-3.345 0-5.767S0 0 0 0l6.955 9.309s-1.903 3.706-3.199 5.63z" transform="translate(56.065 76.758)" style="fill:#949a9b"/>
        <path data-name="Path" d="M2.892 0a3.16 3.16 0 0 0-2.64 1.361C-.82 2.844 1.773 4.055 3.482 3.03S2.892 0 2.892 0z" transform="translate(59.54 49.822)" style="fill:#bbc3c4"/>
        <path data-name="Path" d="M29.934 21.719s-.624 1.529-2.394.406c-1.969-2.2-4.348-5.366-4.813-8.216-.817-5.016-6.705-15.517-10.748-13.7A12.712 12.712 0 0 0 5.83 3.88a8.434 8.434 0 0 0-1.356 2.16c-1.97 4.58-.688 5.372-3.783 7.342C-.914 14.405.565 15.86 2.2 15.995s1.551 5.328 4.681 7.485 8.8 1.706 10.7 1.09a11.809 11.809 0 0 1 3.378 3.868c.282.459.565.891.843 1.3s1.752 4.929 1.573 7.135 9.6-1.088 9.7-5.156-3.141-9.998-3.141-9.998z" transform="translate(33.897 29.164)" style="fill:#fed194"/>
        <path data-name="Path" d="M0 0s.7 6.14 4.093 4.472L1.378.7z" transform="translate(55.223 44.201)" style="fill:#f59d4e"/>
        <path data-name="Path" d="M3.626 2.646S2.708 1.853 0 5.074c0 0 1.024-5.15 2.625-5.074s1.001 2.646 1.001 2.646z" transform="translate(49.047 36.92)" style="fill:#f59d4e"/>
        <path data-name="Path" d="M0 4s8.135-.713 10 1.392S6.136 0 6.136 0 1.649 2.258 0 4z" transform="translate(40.129 28.6)" style="fill:#f59d4e"/>
        <path data-name="Path" d="M15.492 5.576c4.208 1.663 5.129 10.724 2.265 9.276-3.846-1.949-4.731 5.671-5.048 2.132s1.164-3.281.7-6.683a3.185 3.185 0 0 0-3.37-3.1c-4.211.362-8.986-.577-9.89-2.57a2.23 2.23 0 0 1 .646-2.443A5.254 5.254 0 0 1 4.931 0a6.149 6.149 0 0 1 4 2.048s10.247.931 6.561 3.528z" transform="translate(35.99 24.096)" style="fill:#72120c"/>
        <path data-name="Path" d="M.228.981a28.87 28.87 0 0 0 2.224 4.427S3.3 5.146 3.5 5.353 0 0 0 0z" transform="translate(49.174 33.415)" style="fill:#530905"/>
        <path data-name="Path" d="M0 0s2.753 5.776 4.956 7.133l1.6.472L1.465.244z" transform="translate(41.68 24.186)" style="fill:#530905"/>
        <path data-name="Path" d="M0 .043s-.231 4.839 3.61 4.443c0 0-1.716-2.971-1.481-3.847S0 .043 0 .043z" transform="translate(55.201 43.466)" style="fill:#72120c"/>
        <path data-name="Path" d="M.031 1.187s1.389 3.859 3.4 3.4l-.572-1.122L.147 0a2.136 2.136 0 0 0-.116 1.187z" transform="translate(55.192 43.015)" style="fill:#530905"/>
        <path data-name="Path" d="M22.033 13.317a17.215 17.215 0 0 1 1.335 3.283c1.977 6.8-4.574 12.023-4.574 12.023-2.61-1.916-7.825-11.26-9.394-14.133l-.459-.843c-.437-.434-.87-.9-1.3-1.39A70.731 70.731 0 0 1 .1 1.13.758.758 0 0 1 .815 0c2.212.22 5.862 6.83 5.862 6.83l.08-.03c6.901-2.546 12.47 1.254 15.276 6.517z" transform="translate(39.583 18.653)" style="fill:#af7a4b"/>
        <path data-name="Path" d="M2.923 8.5c7.243-2.937 12.63-1.171 12.63-1.171C12.75 2.063 7.179-1.735.282.812c-.7 1.891.032 3.94.887 5.455A11.854 11.854 0 0 0 2.923 8.5z" transform="translate(46.067 24.644)" style="fill:#fff"/>
        <path data-name="Path" d="M0 2.239A22.07 22.07 0 0 0 3.114.11c.8-.792-.242 2.918-1.475 3.517 0 0-1.371-1.466-1.639-1.388z" transform="translate(51.475 51.5)" style="fill:#f59d4e"/>
        <path data-name="Path" d="M2.72 4.325a.122.122 0 0 1-.092.013C2.537 4.315.362 3.759.039 2.422-.135 1.7.271.9 1.245.047A.125.125 0 1 1 1.41.23C.51 1.016.131 1.732.283 2.359c.286 1.193 2.386 1.729 2.405 1.734a.124.124 0 0 1 .092.151.122.122 0 0 1-.06.082z" transform="translate(36.914 25.699)" style="fill:#fff"/>
        <path data-name="Path" d="M0 2.059a2.978 2.978 0 0 1 .325-.79 3.058 3.058 0 0 1 .531-.68 2.248 2.248 0 0 1 .735-.467 1.8 1.8 0 0 1 .848-.111 2.539 2.539 0 0 0-.8.23 2.392 2.392 0 0 0-.352.209 2.753 2.753 0 0 0-.314.26 4.144 4.144 0 0 0-.536.629 6.3 6.3 0 0 0-.437.72z" transform="translate(50.66 41.168)" style="fill:#f59d4e"/>
        <path data-name="Path" d="M1.373.727a7.885 7.885 0 0 0-.329-.248A2.429 2.429 0 0 0 .712.288a1.4 1.4 0 0 0-.345-.11A1.908 1.908 0 0 0 0 .157.667.667 0 0 1 .375 0a.762.762 0 0 1 .4.073 1.155 1.155 0 0 1 .347.255 1.311 1.311 0 0 1 .251.399z" transform="translate(51.626 41.656)" style="fill:#f59d4e"/>
        <path data-name="Path" d="M32.362 18.906s-7.01-2.312-14.5-5.006C10.94 11.411 3.608 8.594 1.02 6.975-4.37 3.605 13.362 0 13.362 0s3.6 2.028 6.984 4.369a19.014 19.014 0 0 1 2.922 2.171c8.411 8.766 10.1 1.438 10.1 1.438z" transform="translate(166.903 157.724)" style="fill:#fed194"/>
        <path data-name="Path" d="M10.668 1.04s.2 6.18-1.4 8.5-2.433 2.16-2.433 2.16L0 8.968 8.472 0z" transform="translate(170.099 156.975)" style="fill:#f59d4e"/>
        <path data-name="Path" d="M14.5 14.534S7.491 12.222 0 9.527A29.128 29.128 0 0 1 2.485 0a46.865 46.865 0 0 1 2.923 2.171c3.792 3.089 5.17 3.613 5.17 3.613l7.507 3.4z" transform="translate(184.765 162.096)" style="fill:#ffb113"/>
        <path data-name="Path" d="M203.2 164.191a4.557 4.557 0 0 1 1.386.038l3.992 27.074s-.162.722-1.485 1.168a6.149 6.149 0 0 1-1.121.252c-2.358.326-5.851-9.568-7.978-12.711-2.753-4.057-1.39-3.929-1.39-3.929a12.044 12.044 0 0 0-1.1-8s-2.96-1.126 5-3.284a14.189 14.189 0 0 1 2.696-.608z"/>
        <path data-name="Path" d="M2.529.16a.191.191 0 0 1-.153.214 4.518 4.518 0 0 0-2.038.968.191.191 0 1 1-.261-.275A4.845 4.845 0 0 1 2.3 0a.191.191 0 0 1 .224.151v.006z" transform="translate(198.17 179.449)" style="fill:#fff"/>
        <path data-name="Path" d="M2.5.166a.192.192 0 0 1-.155.214C.3.758.382 1.94.383 1.948A.191.191 0 0 1 0 1.984C0 1.921-.115.446 2.278 0A.191.191 0 0 1 2.5.156z" transform="translate(197.057 176.943)" style="fill:#fff"/>
        <path data-name="Path" d="M65.829 54.673a19.522 19.522 0 0 1-2.465 6.817 24.523 24.523 0 0 1-3.685 4.923S24.6 58.027 18.309 53.974 0 22.388 0 22.388 18.257-5.476 20.845.967c.966 2.4 3.208 8.433 5.641 15.052 4.1 11.149 8.734 23.974 8.734 23.974 8.805.424 30.609 14.68 30.609 14.68z" transform="translate(114.253 102.582)" style="fill:#b4814f"/>
        <path data-name="Path" d="M63.362 61.49a24.524 24.524 0 0 1-3.685 4.923s-14.69-3.513-26.763-7.088c-6.581-1.951-12.39-3.921-14.606-5.351C12.02 49.92 0 22.388 0 22.388S18.257-5.476 20.845.967c.258.642.608 1.546 1.03 2.651 1.15 3.022 2.829 7.555 4.611 12.406 0 0-8.541 9.331-7.2 18.172s7.044 20.51 44.076 27.294z" transform="translate(114.254 102.582)" style="fill:#aa7548"/>
        <path data-name="Path" d="M32.914 59.325c-6.581-1.951-12.39-3.921-14.606-5.351C12.02 49.92 0 22.388 0 22.388S18.257-5.476 20.845.967c.258.642.608 1.546 1.03 2.651 2.956 17.233-10.83 18.269-9.157 30.582s8.387 20.411 20.196 25.125z" transform="translate(114.253 102.582)" style="fill:#42211d"/>
        <path data-name="Path" d="M34.89 12.366s-7.38-.113-15.332-.448c-7.349-.308-15.186-.807-18.14-1.579C-4.731 8.733 11.114 0 11.114 0s4.038.862 7.971 2.084a18.706 18.706 0 0 1 3.437 1.2c10.646 5.852 10.063-1.643 10.063-1.643z" transform="translate(96.484 136.782)" style="fill:#fed194"/>
        <path data-name="Path" d="M7.816.337s2.037 5.838 1.2 8.527-1.674 2.8-1.674 2.8L0 11.09 5.407 0z" transform="translate(100.345 136.57)" style="fill:#f59d4e"/>
        <path data-name="Path" d="M16.024 10.282s-7.38-.113-15.333-.448A29.13 29.13 0 0 1 .219 0C1.412.367 2.6.775 3.656 1.2 8.2 3.015 9.669 3.1 9.669 3.1l8.177 1z" transform="translate(115.35 138.866)" style="fill:#ffb113"/>
        <path data-name="Path" d="M129.651 133.344a5.269 5.269 0 0 1 1.315-.867l21.335 22.587s.318.777-.621 2.053a6.946 6.946 0 0 1-.878.965c-1.982 1.836-11.674-5.1-15.694-6.634-5.2-1.987-3.85-2.753-3.85-2.753a13.666 13.666 0 0 0-6.235-6.73s-3.489.879 2.511-6.308a15.8 15.8 0 0 1 2.117-2.313z"/>
        <path data-name="Path" d="M0 .867A5.269 5.269 0 0 1 1.315 0L22.65 22.587s.318.777-.621 2.053z" transform="translate(129.651 132.477)" style="fill:#ffb113"/>
        <path data-name="Path" d="M1.694.068a.216.216 0 0 1 0 .3A5.113 5.113 0 0 0 .428 2.595.218.218 0 0 1 0 2.5 5.49 5.49 0 0 1 1.38.064a.218.218 0 0 1 .307 0z" transform="translate(135.66 149.244)" style="fill:#fff"/>
        <path data-name="Path" d="M1.48.07a.217.217 0 0 1 0 .3A3.346 3.346 0 0 0 .434 2.184a.219.219 0 0 1-.231.2A.218.218 0 0 1 0 2.157 3.624 3.624 0 0 1 1.168.066a.218.218 0 0 1 .307 0z" transform="translate(138.248 151.06)" style="fill:#fff"/>
        <path data-name="Path" d="M1.47.069a.216.216 0 0 1 0 .3C-.192 2.057.655 3.1.664 3.106a.218.218 0 0 1-.025.307.221.221 0 0 1-.307-.025C.287 3.333-.777 2.033 1.159.064a.217.217 0 0 1 .307 0z" transform="translate(133.2 147.66)" style="fill:#fff"/>
        <path data-name="Path" d="M86.489 27.237c-2.14 3.212-6.241 5.85-11.123 8-13.605 5.985-33.251 8.143-33.251 8.143 9.014 0 19.287 2.937 19.287 2.937s-.083 2.3-.28 4.561c-.167 1.912-.418 3.8-.769 4.243-.768.978-2.1 6.08-2.1 6.08a122.15 122.15 0 0 1-17.643-.108c-14.9-1.11-27.592-4.384-31.133-5.9C4.59 53.094-2.4 47.365.816 38.839s35.5-22.78 35.5-22.78c1.59-3.029 6.778-6.017 13.055-8.573C61.313 2.621 77.195-.7 79.712.125c3.84 1.251 14.888 14.953 6.777 27.112z" transform="translate(46.213 90.046)" style="fill:#b4814f"/>
        <path data-name="Path" d="M73.454 27.232c-2.14 3.212-6.241 5.85-11.123 8-13.605 5.985-33.251 8.143-33.251 8.143 9.014 0 19.287 2.937 19.287 2.937s-.02.575-.066 1.433c0 .05-.006.1-.008.154v.018c0 .047-.006.092-.008.143v.04c0 .04 0 .082-.007.125v.06l-.006.092-.006.1v.049c0 .046 0 .092-.008.137a.038.038 0 0 1 0 .01c-.04.68-.092 1.443-.161 2.2-.167 1.911-.416 3.8-.769 4.243-.768.978-2.1 6.08-2.1 6.08A177.564 177.564 0 0 1 17.791 60 22.488 22.488 0 0 1 1.577 49.76c-3.946-6.241-.969-8.307 14.448-8.922 1.066-.041 2.216-.106 3.433-.189s2.5-.184 3.832-.3h.034c.307-.026.615-.053.928-.082 5.44-.527 32.37-3.727 39.875-16.105C72.488 10.375 55.019 5.991 30.3 12.906c-.448.125 6.186-5.231 6.044-5.42l.316-.128C48.568 2.563 64.2-.689 66.689.125c1.8.587 5.183 3.91 7.434 8.526 2.539 5.227 3.634 12.121-.669 18.581z" transform="translate(59.248 90.051)" style="fill:#aa7548"/>
        <path data-name="Path" d="M37.568 8.651c-2.7-1.183-9.346-2.33-15.122-2.237S.915 9.818.915 9.818H.526a2.943 2.943 0 0 1-.419-2.461C12.012 2.563 27.64-.689 30.133.125c1.8.587 5.183 3.91 7.435 8.526z" transform="translate(95.791 90.044)" style="fill:#42211d"/>
        <path data-name="Path" d="M0 7.567s16.293-2.955 17.318-3.375c0 0-3.959-4.192-5.218-4.192S0 7.567 0 7.567z" transform="translate(111.471 86.722)" style="fill:#bbc3c4"/>
        <path data-name="Path" d="M38.578 1.028C26.792 7.138 6.1 4.729 2.377 2.772S.42.536.42.536C11.274 2.026 27.93 0 27.93 0q2.645 0 5.278.251 2.492.239 4.956.7z" transform="translate(60.397 133.427)" style="fill:#42211d"/>
        <path data-name="Path" d="M32.789.251C14.564 5.651 0 .536 0 .536 10.855 2.026 27.51 0 27.51 0q2.645 0 5.279.251z" transform="translate(60.818 133.426)" style="fill:#27140e"/>
        <path data-name="Path" d="M0 1.813c0 .254 5.5 15.768 8.945 5.612S6.191.484 6.191.484l-2.36 2.624L1.207 0z" transform="translate(54.994 61.314)" style="fill:#bbc3c4"/>
        <path data-name="Path" d="M57.952 0S-13.292 25.433 2.206 32.673 42.352 38.4 42.352 38.4" transform="translate(56.624 105.123)" style="fill:none;stroke:#fff;stroke-linecap:round;stroke-miterlimit:10;stroke-width:4px"/>
        <path data-name="Path" d="M74.76 37.039S59.2 45.612 55.007 46.45s-22.829 9.411-22.829 9.411-.092-.092-.275-.282c-1.072-1.076-5.332-5.3-14.442-13.7C6.745 32.008 1.155 16.945.534 16.075S0 15.081 0 15.081a13.151 13.151 0 0 1 2.613-3.046 23.73 23.73 0 0 1 2.265-1.8c.466 4.876 2.283 9.006 6.333 6.491s2.049-14.4 2.049-14.4l3.31-2.18a.936.936 0 0 1 1.03.003z" transform="translate(50.348 50.242)" style="fill:#b4814f"/>
        <path data-name="Path" d="M72.146 37.039s-15.56 8.573-19.752 9.412c-2.162.432-8.168 2.921-13.473 5.231-4.984 2.168-9.356 4.18-9.356 4.18s-.092-.092-.275-.282C34.1 38.909 13.24 14.9 10.063 17.6c-3.727 3.167-5.839 1.149-6.241 0s-1.138-.223-1.138-.223A26.5 26.5 0 0 1 0 12.035a23.73 23.73 0 0 1 2.269-1.8c.466 4.876 2.283 9.006 6.333 6.491s2.049-14.4 2.049-14.4L13.927.177l.034-.022a.936.936 0 0 1 1.024-.006z" transform="translate(52.962 50.242)" style="fill:#663e36"/>
        <path data-name="Path" d="M6.655 4.384S5.2 4.77.165 2.838c0 0-.591.148.465-1.171A5.216 5.216 0 0 1 3.327 0z" transform="translate(52.174 60.038)" style="fill:#c90060"/>
        <path data-name="Path" d="M58.219 37.041s-15.56 8.573-19.752 9.412c-2.162.432-8.168 2.921-13.473 5.231.178-5.093-1.29-12.854-9.27-21.008C5.835 20.569 1.6 7.024 0 .177L.034.155A.936.936 0 0 1 1.057.149z" transform="translate(66.889 50.239)" style="fill:#663e36"/>
        <path data-name="Path" d="M53.692 30.463 26.856 38.8l-7.337-7.172L0 12.547 30.2 0l5.335 6.919 18.157 23.544z" transform="translate(72.689 58.665)" style="fill:#ff920f"/>
        <path data-name="Path" d="m37.621 28.072-2.886 5.874-3.079 6.27-.151.309-8.015 16.32L.028 26.42 0 26.382l1.175-1.951 6.608-10.962.492-.816L15.892.008 15.9 0z" transform="translate(102.891 32.279)" style="fill:#ffad01"/>
        <path data-name="Path" d="M118.794 32.279v.008c-.14.292-3.069 6.516-6.785 13.131a91.534 91.534 0 0 1-7.631 11.423 62.694 62.694 0 0 1-1.315 1.624c-.1.114-.154.184-.169.2l1.175-1.951 6.608-10.966.49-.815z"/>
        <path data-name="Path" d="M46.1 0v.008l-7.589 12.634-.49.815-6.6 10.991-1.044 1.738-.143.238-4.451 1.842-4.43 1.834L0 38.934 7.437 26.3l8.337-14.169L46.1 0z" transform="translate(72.689 32.278)" style="fill:#fad6ab"/>
        <path data-name="Path" d="M46.1 0v.008l-7.589 12.634-.49.815-6.6 10.991-1.044 1.738-.143.238-4.451 1.842-4.43 1.834L0 38.934 7.437 26.3l8.337-14.169L46.1 0z" transform="translate(72.689 32.278)" style="fill:#ffcf58"/>
        <path data-name="Path" d="m34.173 23.542-26.836 8.34L0 24.709S21.405 24.893 16.018 0z" transform="translate(92.208 65.586)" style="fill:#f27204"/>
        <path data-name="Path" d="m80.792 57.446 29.918-11.71.489-.815-29.926 11.708-.481.817z"/>
        <path data-name="Path" d="m0 .813 1.3 1.6 2.5-.844L2.522 0 0 .813z" transform="translate(114.642 85.36)" style="fill:#90898b"/>
        <path data-name="Path" d="m0 1.927.335.411L6.37.38 6.061 0 0 1.927z" transform="translate(103.793 87.013)" style="fill:#90898b"/>
        <path data-name="Path" d="m0 2.123.374.462L7.089.426 6.744 0 0 2.123z" transform="translate(104.682 87.909)" style="fill:#90898b"/>
        <path data-name="Path" d="m0 2.123.374.462L7.089.426 6.743 0 0 2.123z" transform="translate(105.57 89.002)" style="fill:#90898b"/>
        <path data-name="Path" d="M15.586 4.309 4.1 8.374 0 3.939 11.974 0l3.611 4.309z" transform="translate(79.482 69.459)" style="fill:#eaeced"/>
        <path data-name="Path" d="m3.608 3.266-.6.21L0 .2.618 0l2.99 3.266z" transform="translate(80.809 73.626)" style="fill:#515151"/>
        <path data-name="Path" d="m3.231 3.265-.237.083L0 .081.244 0l2.987 3.265z" transform="translate(81.305 73.586)" style="fill:#515151"/>
        <path data-name="Path" d="m3.213 3.262-.235.083L0 .082.243 0l2.97 3.262z" transform="translate(81.819 73.414)" style="fill:#515151"/>
        <path data-name="Path" d="m3.2 3.258-.234.082L0 .081.241 0 3.2 3.258z" transform="translate(82.331 73.244)" style="fill:#515151"/>
        <path data-name="Path" d="m3.274 3.254-.328.115L0 .113.338 0l2.936 3.254z" transform="translate(82.85 73.04)" style="fill:#515151"/>
        <path data-name="Path" d="m3.163 3.251-.232.081L0 .08.24 0l2.923 3.251z" transform="translate(83.348 72.907)" style="fill:#515151"/>
        <path data-name="Path" d="m3.146 3.246-.231.081L0 .079.239 0l2.907 3.246z" transform="translate(83.853 72.739)" style="fill:#515151"/>
        <path data-name="Path" d="m3.3 3.242-.4.142L0 .139.416 0 3.3 3.242z" transform="translate(84.267 72.542)" style="fill:#515151"/>
        <path data-name="Path" d="m3.113 3.238-.229.081L0 .078.236 0l2.877 3.238z" transform="translate(84.857 72.406)" style="fill:#515151"/>
        <path data-name="Path" d="m3.1 3.235-.228.08L0 .078.235 0 3.1 3.235z" transform="translate(85.355 72.24)" style="fill:#515151"/>
        <path data-name="Path" d="m3.08 3.231-.227.08L0 .077.234 0 3.08 3.231z" transform="translate(85.851 72.076)" style="fill:#515151"/>
        <path data-name="Path" d="m3.237 3.226-.4.14L0 .136.408 0l2.829 3.226z" transform="translate(86.258 71.882)" style="fill:#515151"/>
        <path data-name="Path" d="m3.049 3.222-.225.08L0 .077.233 0l2.816 3.222z" transform="translate(86.838 71.748)" style="fill:#515151"/>
        <path data-name="Path" d="m3.033 3.22-.224.08L0 .077.231 0l2.8 3.22z" transform="translate(87.327 71.585)" style="fill:#515151"/>
        <path data-name="Path" d="m3.017 3.215-.223.079L0 .076.23 0l2.787 3.215z" transform="translate(87.816 71.423)" style="fill:#515151"/>
        <path data-name="Path" d="m3.251 3.212-.463.162L0 .16.477 0l2.774 3.212z" transform="translate(88.03 71.269)" style="fill:#515151"/>
        <path data-name="Path" d="m2.986 3.208-.222.078L0 .076.229 0l2.757 3.208z" transform="translate(88.785 71.101)" style="fill:#515151"/>
        <path data-name="Path" d="m2.971 3.2-.22.077L0 .075.228 0l2.743 3.2z" transform="translate(89.267 70.941)" style="fill:#515151"/>
        <path data-name="Path" d="m2.955 3.2-.22.077L0 .075.227 0l2.728 3.2z" transform="translate(89.747 70.782)" style="fill:#515151"/>
        <path data-name="Path" d="m2.941 3.2-.219.077L0 .074.226 0l2.715 3.2z" transform="translate(90.224 70.624)" style="fill:#515151"/>
        <path data-name="Path" d="m3.269 3.192-.552.194L0 .188.568 0l2.7 3.192z" transform="translate(90.337 70.472)" style="fill:#515151"/>
        <path data-name="Path" d="m2.91 3.188-.218.076L0 .074.224 0 2.91 3.188z" transform="translate(91.173 70.308)" style="fill:#515151"/>
        <path data-name="Path" d="m96.111 57.861-2.267 4.947 3.171 3.9 4.242-1.64-3.033-3.926 2.077-5.081-4.19 1.8z"/>
        <path data-name="Path" d="M.025 1.793 0 2.542S2.677 1.282 4.179.551A3.82 3.82 0 0 1 4.354 0z" transform="translate(94.081 60.559)" style="fill:#b28567;opacity:.32;mix-blend-mode:multiply;isolation:isolate"/>
        <path data-name="Path" d="m.273 21.037.149-.211.143-.291a.687.687 0 0 0 .1-.144l.019-.064.049-.071h.01l.013-.022v-.007l.028-.04.061-.134.092-.139.017-.038.009-.008.092-.2.092-.118.072-.177.147-.209.2-.4.161-.232.122-.266.056-.05-.022-.016v-.006a.678.678 0 0 0 .083-.247l.014-.024h.031L2 17.776c.065.062.141.032.23-.092l-.026-.164.115-.1.119-.266.178-.316.108-.242q.039.039.209-.212l.031-.212.136-.182a.723.723 0 0 0 .065-.173c.05.018.114-.039.195-.184l.031-.106.014-.024h.03l.012-.022-.006-.041.184-.275.107-.24.092-.114.07-.174.144-.2.194-.393.156-.227.119-.261.055-.048-.017-.017.055-.091.13-.184.038-.171.058-.048.081-.2.145-.2.03-.107.145-.2.092-.218.425-.647.069-.171.013-.023.092-.114.082-.262.119-.156.012-.02-.012-.012a.76.76 0 0 0 .039-.056l.017-.084.07-.068.012-.021.066-.173.075-.028.184-.43.149-.158.036-.169.1-.173.167-.241c-.037-.037-.011-.135.079-.294 0 0 .14-.233.171-.2l.019.02a.958.958 0 0 0 .042-.126.846.846 0 0 0 .106-.137l.017-.084.068-.067.012-.021.066-.17.074-.028.184-.425.146-.155.036-.167.092-.171.164-.241c-.037-.038-.01-.134.079-.291l.162-.341c-.026.064-.024.111.006.142l.019.02.081-.2c.044 0 .1-.057.167-.176l.029-.1.013-.022H8.9l.012-.021L8.9 5.77l.173-.257.1-.229.092-.107.066-.167.138-.193.184-.374.149-.214.113-.249.053-.045-.017-.017v-.006a.629.629 0 0 0 .076-.232l.013-.022h.029l-.006-.141c.06.063.131.039.214-.074l-.024-.159.106-.092.111-.249.165-.293.1-.227c.006.007.017.006.031 0h.034c.007-.013.011-.025.017-.038a1.267 1.267 0 0 0 .117-.151l.028-.2.007-.01c.05.017.106-.016.169-.1l-.019-.134.014-.039.092-.072.11-.247.164-.291.1-.225c.024.026.092-.038.193-.189l.028-.2.122-.167c.063-.13.081-.21.051-.241L11.886 0h-.029l-.039.123-.184.33-.234.312c.021.022.014.07-.023.142l-.151.268-.078.084.008.04-.078.084-.045.124h-.025l-.04.124-.124.22-.142.2-.017.042-.14.184c.021.022.013.07-.023.142l-.153.275-.078.084.007.04-.078.084-.106.289-.275.381-.064.159a.962.962 0 0 0-.2.252L9.594 4l.006.042.017.018.037-.06.018.02-.059.1-.132.129-.029.1-.077.092-.055.146-.092.168-.207.42-.108.092-.013.027.006.039-.1.13-.127.275-.2.2v.03l-.045.023-.034.06-.127.174-.261.613-.127.175-.132.338-.281.5-.141.195.019.019a.437.437 0 0 0-.061.25l-.066-.075-.061.006-.037.064L7 8.486l-.264.62-.136.177-.134.341-.284.5-.143.2.02.02a.477.477 0 0 0-.064.2l-.028-.028c-.025-.026-.092.036-.192.184l.006.144c-.039 0-.115.082-.23.251l-.037.171-.2.352-.07.173-.018-.017-.025.044-.092.216-.106.033-.062.215-.063.112-.082.092-.018.092-.038.065-.063.007-.05.194-.082.092a2.727 2.727 0 0 0-.151.374c-.028-.028-.11.062-.243.275l.018.017.007.043.018.018.037-.066.02.019-.062.111-.139.139-.031.106-.081.092-.058.152-.1.177-.218.441-.114.092-.013.023.006.039-.107.139-.133.286-.201.212.008.055-.028.084-.2.359-.254.342c.023.022.015.072-.025.15l-.165.292-.087.093.008.04-.084.092-.114.308-.295.414-.07.169a1.1 1.1 0 0 0-.211.275l.018.017.007.044.018.017.039-.068.02.02-.064.113-.141.144-.032.107-.083.092-.06.155-.1.184-.223.451-.114.1a.934.934 0 0 0-.223.284l.019.017.007.043.009.009-.069.147-.211.216.014.084-.051.133-.1.184-.163.326c.05.064.1.13.146.2l.071-.092z" transform="translate(111.714 45.034)" style="fill:#593d2d"/>
        <path data-name="Path" d="m13.091 1.632-.033-.122-.188-.225-.209-.3-.173-.206q.05-.018-.1-.284l-.182-.123-.111-.2C12 .043 11.927-.015 11.887 0l-.147.059-.012.03.1.1.24.345.2.383q.042-.017.124.092l.193.275.049.117.04.01.049.117.1.1-.009.025.1.1.157.226.128.232.033.037.12.227c.028-.011.07.018.123.092l.192.275.048.116.04.011.048.116.227.236.244.441.126.138a1.11 1.11 0 0 0 .155.306l.024-.009.041.013.024-.008-.044-.069.026-.009.073.106.067.184.082.074.05.114.112.118.117.168.3.388.037.142.016.022.038.012.078.155.2.243.1.275.052.017.063.061.232.334.195.367c.028-.01.07.018.122.086l.184.269.047.113.039.011.046.113.222.231.238.43.073.081-.007.02.086.125.1.092c-.025.008 0 .076.081.2l.184.169.017.072.014.02.041.012.017.071.213.261.025.042a.467.467 0 0 1-.048.15l-.216.257-.017.082-.011.02h-.028a.079.079 0 0 0 0 .1l.061.065a.306.306 0 0 1-.029.147l-.077.145-.084-.092-.056.006-.092.164.007.138-.011.02-.084.106c-.019.06-.1.241-.19.425l-.011-.15-.092.165-.178.432c-.019-.021-.068.037-.145.172l-.061.164h-.029v.1l-.022.042-.092.128.017.017.007.039a.234.234 0 0 0-.011.029l-.01-.011h-.038l-.084.209-.132.092-.123.33-.08.149v.359l-.079.149-.07-.072c.039-.071.039-.125 0-.161l-.018-.019-.028.006-.226.522c-.023-.024-.073.036-.15.178l-.045.085v.1l-.012.022-.063-.031c-.072.169-.092.275-.055.307l-.207.283.007.039h-.033l-.055.006-.01.02v.1l.009.009-.031.075-.119.176-.064.167-.131.2.006.139-.035.064c-.035-.035-.06-.038-.074-.009l-.162.3a.947.947 0 0 0-.055.2l-.073.007-.081.151c-.016.028-.006.061.03.1l-.069.128-.059.007-.162.4-.076.092-.012.023-.2.429-.065.068-.011.122-.012.023H13.7l-.018.083.065.033.017.017-.023.043-.092-.092-.058.007-.162.4-.184.285a.88.88 0 0 0-.073.184l-.084.01-.082.152c-.016.029-.006.061.03.1l-.07.13-.059.008-.164.408-.076.092-.013.022-.2.435-.065.069-.011.123-.013.023h-.028l-.018.084.066.033.017.017-.023.043-.092-.092-.059.008-.164.409-.184.289a.814.814 0 0 0-.076.194l-.026-.026h-.028l-.092.218-.124.184-.066.173-.135.2.006.14-.036.067c-.036-.035-.061-.037-.077-.007l-.167.312a.961.961 0 0 0-.059.221l-.007-.008-.061.009-.011.021v.1l-.073.153c-.128.239-.163.407-.1.5l-.036.066-.1-.127-.061.009-.012.023-.028.107-.011.022h-.031c-.024.044-.023.077 0 .1l-.219.464-.084.054c-.017.03-.006.062.029.092l-.048.092-.073.033-.012.021v.1l-.084-.05-.017.092-.012.023h-.034l-.119.328q-.059.112-.127.083l-.03.106.019.018.061-.009.024.077-.06.092a.343.343 0 0 1-.248.2l-.025.045v.067l-.031.059c-.016.03 0 .069.05.116a.56.56 0 0 0-.048.108c-.043.024-.113.079-.147.047l-.017-.017h-.03l-.229.53-.291.439-.076.2-.057.051q.047.044-.041.231l-.237.288-.017.087-.012.022-.032.006a.1.1 0 0 0-.015.065h-.022l-.23.534-.294.443-.077.2-.057.063c.031.029.017.106-.042.232l-.239.292-.018.092-.012.022h-.026l-.334-.281c-.054-.065-.05-.113.014-.141l.026-.011a1.134 1.134 0 0 0-.253-.23l.022-.01.01-.029a.709.709 0 0 0-.224-.191l-.017-.02.008-.029-.136-.046c.079-.036.078-.115 0-.237l-.159-.036-.049-.138-.2-.2-.227-.275-.184-.184c.032-.015-.008-.1-.122-.264l-.184-.1-.124-.184A.729.729 0 0 0 4.894 27c.035-.039 0-.117-.1-.242l-.086-.067-.017-.021.009-.03-.016-.018-.04-.01-.184-.265-.184-.184-.076-.128-.138-.128-.14-.207-.3-.323-.158-.229-.2-.206-.026-.07-.023.011a.71.71 0 0 0-.2-.165L3 24.7v-.033l-.138-.047c.08-.037.077-.118 0-.244L2.7 24.34l-.05-.14-.207-.206-.231-.275-.188-.189c.009 0 .01-.017.007-.033l.008-.028c-.011-.013-.021-.021-.032-.032a1.53 1.53 0 0 0-.11-.178l-.184-.106-.007-.011c.031-.045.017-.116-.048-.213l-.135-.03-.035-.03-.042-.118-.207-.207L1 22.259l-.189-.19c.031-.016-.011-.107-.128-.275L.5 21.686l-.128-.194c-.108-.117-.184-.165-.221-.147l-.141.069-.01.031.108.092.269.324.235.367c.028-.014.072.012.131.077l.216.261.059.112.041.007.058.113.106.092-.007.026.108.092.176.212.148.22.036.034.14.216c.028-.014.071.012.13.076l.215.259.057.111.041.007.058.111.245.217.282.419.132.124a1.094 1.094 0 0 0 .184.291l.023-.01.042.008.023-.01-.05-.059.025-.012.083.1.086.178.087.068.06.109.121.108.13.157.334.361.05.14.017.02.039.008.092.149.218.225.123.265.053.012.068.055.26.313.227.352c.028-.013.07.013.128.076l.209.251.055.108.041.008.055.107.241.212.275.408.078.073-.006.021.094.135.1.085c-.023.011.009.077.1.2l.193.153.024.07.016.018.041.009.023.069.235.241.013.017.188-.1h.009l.2-.367.042-.133h.027l.1-.248.353-.551.011-.126.184-.239.023-.148-.017-.017h-.029l-.017-.017a.262.262 0 0 0-.006-.176l.1.1.061-.011.012-.021.017.017a1.749 1.749 0 0 0 .1-.231l.067-.126.042-.132h.03l.1-.245.35-.551.012-.126.184-.236.117-.294.027.026a1.4 1.4 0 0 0 .1-.26l.028-.108.164-.148.1-.3.092-.163.092-.117.012-.021.004-.034.092-.117.043-.13.077-.092.078-.2.144-.167-.019-.018-.006-.038.184-.3.1-.24.108-.1c.12-.246.2-.426.243-.545l.029-.006.023-.145.352-.5.04-.13.084-.155.1-.137v-.1l.087-.116.036-.067-.006-.038-.018-.018h-.029l.048-.12.092-.015.082-.153.184-.291.035-.167.052-.05.03-.1.012-.023h.028l.129-.343.188-.251.064-.169.526-.883a.225.225 0 0 0 .024-.114h.009l.081-.151.184-.287.035-.166.051-.049.029-.1.013-.022h.028l.128-.34.184-.246.063-.167.52-.871a.217.217 0 0 0 .023-.084l.017-.115.34-.484.039-.127.081-.15.1-.132v-.1l.084-.11.035-.065-.006-.038-.018-.018H15.3c.024-.056.04-.1.053-.14a.1.1 0 0 0 .111-.061l.023-.042.028-.1.012-.022h.028l.051-.145.085-.112a.709.709 0 0 0 .092-.27l.1-.092.011-.02v-.039l.012-.022h.027l.029-.1.08-.15a10.576 10.576 0 0 1 .589-1l.1-.288.055-.074.044.007.134-.35.234-.338.039-.123-.037-.059.249-.388.011-.02.162-.251.027-.1.351-.564c.026-.074.043-.131.056-.184l.176-.329.039-.124h.029l.037-.092a.675.675 0 0 1 .033-.112.811.811 0 0 1 .067-.119l-.012-.017-.11-.152-.033-.069-.4-.4c-.049-.07-.039-.116.027-.139l.026-.009a1.11 1.11 0 0 0-.232-.251l.023-.008.012-.028a.7.7 0 0 0-.206-.209l-.016-.022.01-.028-.131-.058c.083-.028.092-.107.018-.237l-.155-.05-.036-.14-.184-.218-.2-.291-.168-.2q.05-.018-.1-.275l-.174-.12-.107-.2a.766.766 0 0 0-.126-.134c.038-.035.014-.117-.079-.25L16 5.742l-.015-.022.015-.028-.014-.02-.039-.014-.164-.275-.17-.2-.062-.134-.127-.139-.124-.22-.271-.348-.14-.242-.184-.223-.02-.072-.024.009a.68.68 0 0 0-.184-.184l-.016-.023.01-.028-.133-.059c.083-.03.092-.111.016-.243l-.156-.05-.039-.145-.184-.223-.207-.3-.172-.2c.01 0 .012-.016.011-.032l.01-.028c-.009-.014-.019-.023-.028-.036a1.583 1.583 0 0 0-.092-.184l-.177-.122-.006-.012c.036-.041.027-.113-.029-.216l-.132-.042z" transform="translate(111.836 44.91)" style="fill:#593d2d"/>
        <path data-name="Path" d="m57.673 33.95.252.344-3.035 5.955a4.036 4.036 0 0 1-.189.12c-.085.055-.171.107-.258.161a20.342 20.342 0 0 1-6.073 2.439c-3.965.91-6.706.275-8.67-1.173a4.697 4.697 0 0 1-.211-.161c-3.454-2.718-4.411-7.985-5.507-11.38-.032-.1-.065-.2-.1-.294-.593-1.766-1.246-2.955-2.371-2.885-2.741.175-4.2-1.256-7.092-2.511l-.275-.115c-.013 0-.025-.011-.038-.017a22.482 22.482 0 0 0-7.565-1.582A29.6 29.6 0 0 0 0 27.074s.049-.274.166-.774L8.5 12.127 38.841 0l21.717 28.074z" transform="translate(79.952 32.278)" style="opacity:.47;fill:#ff920f"/>
        <path data-name="Path" d="m137.878 66.573-3.036 5.955-.118.224-.075-.1-.106-.149-2.919-4.046 3.488-5.675 2.512 3.447.252.344z"/>
        <path data-name="Path" d="M.4 0S-.611 6.516.582 9.589c0 0 .326.559.35-.606S.85 4.686 2.894 5.228a1.656 1.656 0 0 1 1.193.929z" transform="translate(54.74 58.265)" style="fill:#fff"/>
        <path data-name="Path" d="M13.329 7.311c-.558.839-2.238.233-2.238.233s1.958 3.12 2 4.239-1.285.746-1.285.746a10.9 10.9 0 0 1 .606 1.886c.14.792-.116 1.025-.116 1.025a1.515 1.515 0 0 1-1.725-.535s0 .465-.885.652-2.1-1.305-3.447-3.212a9.848 9.848 0 0 0-2.6-2.655c-.092 4.053-1.729 4.565-1.682 2.889.039-1.4-.9-4.13-1.233-5.507a3.867 3.867 0 0 1-.118-.642A27.681 27.681 0 0 0 0 3.262L2.469 0S3.1.33 3.978.826A26.747 26.747 0 0 1 8.945 4.15c1.401 1.483 4.941 2.323 4.384 3.161z" transform="translate(117.231 56.722)" style="fill:#fed194"/>
        <path data-name="Path" d="M3.978.825a.515.515 0 0 1-.166.061A15.452 15.452 0 0 1 1.957 4.1 6.137 6.137 0 0 0 .723 7.072a3.867 3.867 0 0 1-.117-.642A27.681 27.681 0 0 0 0 3.262L2.469 0S3.1.329 3.978.825z" transform="translate(117.235 56.72)" style="fill:#f59d4e"/>
        <path data-name="Path" d="M53.614 26.606c-1.049 2.71-4.405 4-4.405 4l-4.473-3.285s.21.419-1.816.521S22.134 17.073 21.959 16.97l-11.6 14.311A19.362 19.362 0 0 1 0 19.863v-.012s.194-.23.537-.631a114.433 114.433 0 0 1 9.972-10.4C15.124 4.836 22.517 0 27.548 0c11.044 0 20.9 18.31 21.873 19.818a2.274 2.274 0 0 1 0 2.684z" transform="translate(67.697 30.424)" style="fill:#fff"/>
        <path data-name="Path" d="M21.959.889 10.359 15.2A19.362 19.362 0 0 1 0 3.782l.534-.642s1.927 4.612 5.278 7.08 7.408-6.663 10.417-9.079a4.571 4.571 0 0 1 5.73-.252z" transform="translate(67.696 46.504)" style="fill:#d2d7db;opacity:.54"/>
        <path data-name="Path" d="M3.449 5.764q-.958-1.377-1.86-2.8A34.04 34.04 0 0 1 .73 1.521l-.2-.367C.461 1.031.4.9.334.78S.215.527.155.4C.124.337.1.271.074.206L0 .008.026 0l.108.184C.168.245.2.3.241.367.319.485.384.606.464.72l.453.7c.159.23.3.469.459.7l.448.706.439.712c.14.242.289.478.424.723.275.486.551.977.787 1.493z" transform="translate(124.349 65.872)" style="fill:#f59d4e"/>
        <path data-name="Path" d="M2.586 4.9q-.7-1.193-1.363-2.41Q.9 1.884.586 1.265A19.357 19.357 0 0 1 0 .01L.025 0c.269.385.516.772.754 1.166.122.2.233.4.351.594l.336.6.318.612c.1.207.207.411.3.622A11.748 11.748 0 0 1 2.61 4.89z" transform="translate(126.447 64.354)" style="fill:#f59d4e"/>
        <path data-name="Path" d="M1.048 1.669C.865 1.4.691 1.118.512.849S.165.3 0 .015L.023 0a1.584 1.584 0 0 1 .418.315A2.35 2.35 0 0 1 .745.7a2.435 2.435 0 0 1 .219.441 1.639 1.639 0 0 1 .107.512z" transform="translate(127.263 62.605)" style="fill:#f59d4e"/>
        <path data-name="Path" d="M21.959.894 10.359 15.2A19.362 19.362 0 0 1 0 3.787c2.36 4.329 7.191 10.16 9.66 9.928S20.142 1.6 20.109 1.141 19.327.02 19.3 0a4.737 4.737 0 0 1 2.659.894z" transform="translate(67.696 46.499)" style="fill:#aeb6b7"/>
        <path data-name="Path" d="M0 3.121A20.231 20.231 0 0 0 3.634 0s1.088-.067-2.38 4.038z" transform="translate(112.436 54.623)" style="fill:#bbc3c4"/>
        <path data-name="Path" d="M0 16.753S8.059 15.666 10.972.172c0 0-.367-.556-1.763.329a30.108 30.108 0 0 0-3.564 3.013S4.907 11.854 0 16.753z" transform="translate(58.83 47.669)" style="fill:#c90060"/>
        <path data-name="Path" d="M0 14.786A20.645 20.645 0 0 0 2.547 8.63C3.323 5.158 3.976.841 3.6.186s3.766.585 3.84 1.178.139 8.979.946 12.767c0 .003-5.927-2.886-8.386.655z" transform="translate(58.83 49.636)" style="fill:#fff"/>
        <path data-name="Path" d="M2.619.065A3.247 3.247 0 0 0 .25 4.491c1.21 3.6 3.312 4.158 3.312 4.158S1.6 6.836 2.45 5.07 3.845 2.329 3.377 0z" transform="translate(55.357 64.421)" style="fill:#c90060"/>
        <path data-name="Path" d="M0 .515a2.237 2.237 0 0 0 2.43 2.463c2.619-.061 3.414-1.334 3.414-1.334s-1.593.918-2.584 0A4.548 4.548 0 0 0 .115 0z" transform="translate(58.568 64.419)" style="fill:#c90060"/>
        <path data-name="Path" d="M0 .036a4.557 4.557 0 0 1 1.386.038l3.992 27.074s-.162.722-1.485 1.168z" transform="translate(203.2 178.695)" style="fill:#ffb113"/>
        <path data-name="Path" d="M0 .036a4.557 4.557 0 0 1 1.386.038l3.992 27.074s-.162.722-1.485 1.168z" transform="translate(203.2 178.695)" style="fill:#ffb113"/>
        <path data-name="Path" d="M2.166.164a.192.192 0 0 1-.153.214 2.933 2.933 0 0 0-1.672.782.191.191 0 0 1-.3-.239A3.21 3.21 0 0 1 1.941 0a.191.191 0 0 1 .224.151.039.039 0 0 1 0 .009z" transform="translate(199.325 181.952)" style="fill:#fff"/>
    </g>
</svg>
