<svg xmlns="http://www.w3.org/2000/svg" width="25" height="26" viewBox="0 0 25 26">
    <g data-name="Group 24">
        <path data-name="Path 2" d="M.643 0h23.262l.411 1.806-.411 1.6-.978 1.151-1.427-.182-.9-.624-.8-1.295h-.4l-.311.948-.828.97-1.181.181-.917-.181-1.02-1.262-.354-.657-.564.205-.215.946-.755.768-.773.181-1.249-.181-.7-.768-.641-1.15-.308-.178-.424.835-.4.638-1.066.8h-.878l-.716-.5-.779-.651-.3-.948H4.4l-.272.657-.577.946-.951.32-.956.181-.784-.5-.7-.946L0 1.806.158.648z" transform="translate(.357 7.018)" style="fill:#c7996d"/>
        <path d="M20.041 10.072h-.082a2.533 2.533 0 0 1-4.919 0h-.082A2.443 2.443 0 0 1 12.5 12a2.443 2.443 0 0 1-2.459-1.928h-.082A2.444 2.444 0 0 1 7.5 12a2.444 2.444 0 0 1-2.459-1.928h-.082A2.443 2.443 0 0 1 2.5 12 2.409 2.409 0 0 1 0 9.692V7.385l4-4.617V0h17v2.768l4 4.616v2.308A2.409 2.409 0 0 1 22.5 12a2.443 2.443 0 0 1-2.459-1.928z" style="fill:#333"/>
        <path data-name="Combined Shape" d="M25 12H0v-1h1V0h1v11h21V0h1v11h1v1z" transform="translate(0 14)" style="fill:#333"/>
    </g>
</svg>
